<?xml version="1.0" standalone="no"?>
<!DOCTYPE svg PUBLIC "-//W3C//DTD SVG 20010904//EN"
 "http://www.w3.org/TR/2001/REC-SVG-20010904/DTD/svg10.dtd">
<svg version="1.0" xmlns="http://www.w3.org/2000/svg"
 width="478.000000pt" height="487.000000pt" viewBox="0 0 478.000000 487.000000"
 preserveAspectRatio="xMidYMid meet">

<g transform="translate(0.000000,487.000000) scale(0.100000,-0.100000)"
fill="#000000" stroke="none">
<path d="M2048 4194 c6 -11 11 -23 12 -29 4 -25 11 -17 8 9 -1 16 -9 31 -16
34 -11 3 -12 0 -4 -14z"/>
<path d="M2140 4193 c0 -9 -3 -13 -7 -10 -12 12 -43 -25 -44 -52 0 -14 -4 -35
-8 -45 -7 -18 -8 -18 -14 -3 -9 23 -75 23 -84 0 -4 -11 1 -22 18 -32 37 -24
80 -72 73 -82 -3 -5 0 -8 8 -7 7 2 13 -3 12 -9 -1 -7 -2 -22 -2 -33 -1 -13 -7
-17 -17 -14 -11 5 -15 -2 -16 -27 -1 -27 -4 -22 -13 24 -13 68 -54 124 -125
168 -53 34 -67 35 -101 9 l-25 -20 23 0 c13 0 22 -6 22 -15 0 -9 -9 -15 -25
-15 -16 0 -25 6 -25 15 0 8 -7 15 -15 15 -8 0 -15 5 -15 11 0 5 5 7 10 4 6 -3
10 -1 10 5 0 7 -7 9 -16 6 -9 -3 -22 -6 -30 -6 -17 0 -94 -68 -94 -84 0 -23
18 -38 45 -38 18 0 29 -7 35 -23 5 -12 18 -25 29 -28 12 -3 19 -1 16 3 -8 12
6 41 16 34 5 -3 9 3 9 13 0 14 4 12 18 -9 9 -16 20 -28 25 -28 4 0 5 -5 1 -12
-4 -7 -3 -8 4 -4 6 4 9 13 5 21 -3 8 0 15 6 15 13 0 14 -19 3 -37 -11 -17 -52
-5 -45 13 3 8 1 14 -4 14 -5 0 -9 -11 -9 -25 0 -14 3 -25 7 -25 22 0 59 -50
59 -79 0 -19 11 -46 26 -67 26 -33 26 -34 5 -34 -15 0 -27 -10 -37 -32 -14
-32 -15 -32 -11 -5 5 32 -3 35 -21 6 -20 -32 -26 -15 -7 20 16 33 12 57 -8 44
-7 -4 -18 -8 -25 -9 -8 -2 -23 -11 -34 -21 -21 -18 -21 -18 -8 7 l13 25 -23
-20 c-12 -11 -43 -51 -68 -90 -25 -38 -50 -74 -55 -80 -21 -23 46 92 105 178
30 44 -4 34 -57 -16 -50 -49 -55 -49 -23 -4 13 18 16 27 7 22 -40 -23 -83 -61
-100 -89 -23 -37 -25 -27 -4 14 21 41 3 38 -42 -7 -30 -30 -34 -32 -20 -10 21
33 9 36 -20 5 -19 -21 -63 -100 -63 -113 0 -3 9 -5 19 -5 11 0 36 -9 55 -21
42 -24 191 -40 341 -35 91 3 175 -9 175 -25 0 -5 -10 -9 -22 -9 -19 -1 -17 -3
11 -15 45 -20 54 -19 41 4 -5 11 -10 40 -10 66 0 43 2 47 34 60 19 8 42 12 50
9 14 -5 86 43 86 58 0 4 -12 3 -26 -2 -34 -13 -34 -13 -34 13 0 12 9 31 21 40
11 10 25 31 31 48 10 28 11 29 28 14 26 -23 64 -11 50 15 -6 11 -16 17 -23 15
-19 -7 -41 11 -34 30 4 9 10 14 15 12 20 -13 39 22 46 86 6 57 12 74 36 100
l30 32 -25 21 c-14 12 -25 29 -25 39 0 25 -13 10 -15 -17 -1 -12 -7 -24 -13
-26 -7 -2 -10 3 -6 12 3 9 0 23 -7 32 -10 13 -9 16 9 21 20 5 27 21 23 47 -1
4 3 13 8 20 18 22 -6 38 -63 42 -47 3 -56 1 -56 -13z m-255 -121 c-3 -3 -11 0
-18 7 -9 10 -8 11 6 5 10 -3 15 -9 12 -12z m235 -22 c0 -5 -4 -10 -10 -10 -5
0 -10 5 -10 10 0 6 5 10 10 10 6 0 10 -4 10 -10z m-240 -21 c0 -6 -6 -17 -14
-24 -11 -12 -13 -10 -13 11 0 14 5 24 13 24 8 0 14 -5 14 -11z m296 -4 c4 -8
12 -15 20 -15 17 0 12 -102 -5 -108 -9 -3 -7 -9 4 -22 16 -17 15 -19 -4 -29
-22 -12 -30 -5 -33 33 -1 14 -5 26 -8 26 -5 0 -6 87 -2 118 3 17 21 15 28 -3z
m54 -55 c0 -5 -5 -10 -11 -10 -5 0 -7 5 -4 10 3 6 8 10 11 10 2 0 4 -4 4 -10z
m-300 -8 c0 -13 -12 -22 -22 -16 -10 6 -1 24 13 24 5 0 9 -4 9 -8z m310 -46
c0 -3 -4 -8 -10 -11 -5 -3 -10 -1 -10 4 0 6 5 11 10 11 6 0 10 -2 10 -4z
m-300 -31 c-7 -8 -17 -12 -22 -9 -6 4 -5 10 3 15 22 14 33 10 19 -6z m-32 -74
c3 -8 -1 -12 -9 -9 -7 2 -15 10 -17 17 -3 8 1 12 9 9 7 -2 15 -10 17 -17z m30
-188 c2 -36 -22 -78 -39 -68 -11 7 21 105 34 105 1 0 3 -16 5 -37z m-486 -48
c-8 -16 -9 -16 -15 -1 -4 10 -3 15 3 11 6 -3 10 -1 10 6 0 7 3 10 6 6 3 -3 2
-13 -4 -22z m303 -16 c-9 -17 -19 -29 -22 -26 -5 5 25 57 33 57 3 0 -3 -14
-11 -31z m105 -29 c0 -5 -4 -10 -10 -10 -5 0 -10 5 -10 10 0 6 5 10 10 10 6 0
10 -4 10 -10z"/>
<path d="M2026 4161 c-4 -7 -5 -15 -2 -18 9 -9 19 4 14 18 -4 11 -6 11 -12 0z"/>
<path d="M2275 4117 c-4 -10 -3 -28 2 -39 13 -29 21 -11 13 27 -6 25 -8 27
-15 12z"/>
<path d="M3020 4120 c0 -5 3 -10 8 -11 74 -8 136 -37 138 -65 1 -10 2 -24 3
-30 1 -7 10 -14 21 -17 13 -3 18 -11 14 -20 -3 -8 5 -24 18 -36 12 -12 24 -17
26 -11 5 15 22 12 22 -4 0 -15 28 -42 35 -34 3 2 -7 28 -21 56 -32 64 -127
154 -181 170 -49 15 -83 15 -83 2z m240 -144 c9 -12 8 -15 -8 -13 -12 0 -18 6
-15 14 6 16 8 16 23 -1z"/>
<path d="M2944 4055 c-7 -19 -14 -45 -14 -59 l0 -24 -57 23 c-61 24 -153 46
-103 24 86 -37 115 -55 112 -71 -2 -12 2 -16 12 -12 8 3 40 0 70 -6 48 -10 58
-9 72 5 10 9 25 13 38 10 17 -5 16 -3 -6 12 -15 9 -30 30 -34 46 -6 28 -16 36
-51 41 -12 2 -17 10 -15 25 5 32 -7 25 -24 -14z"/>
<path d="M3085 4060 c-9 -15 14 -40 30 -34 11 5 12 10 2 25 -13 21 -23 24 -32
9z"/>
<path d="M2490 4045 c0 -8 5 -15 10 -15 6 0 10 7 10 15 0 8 -4 15 -10 15 -5 0
-10 -7 -10 -15z"/>
<path d="M2329 4023 c-13 -15 -12 -15 9 -4 23 12 28 21 13 21 -5 0 -15 -7 -22
-17z"/>
<path d="M2700 4029 c0 -6 -7 -17 -15 -26 -12 -11 -13 -19 -5 -28 8 -10 7 -14
-7 -18 -15 -4 -15 -5 -1 -6 19 -1 63 63 53 79 -8 13 -25 13 -25 -1z"/>
<path d="M2637 4009 c4 -15 8 -17 19 -8 18 15 18 16 -5 22 -14 3 -17 0 -14
-14z"/>
<path d="M2477 3986 c-9 -23 8 -69 26 -72 13 -2 15 2 7 16 -6 10 -10 30 -10
44 0 28 -14 35 -23 12z"/>
<path d="M2531 3978 c-7 -11 -10 -22 -7 -25 3 -3 8 2 12 11 3 9 10 13 15 10 5
-3 9 -1 9 5 0 20 -16 19 -29 -1z"/>
<path d="M3075 3970 c3 -5 8 -10 11 -10 2 0 4 5 4 10 0 6 -5 10 -11 10 -5 0
-7 -4 -4 -10z"/>
<path d="M2610 3966 c0 -2 7 -6 15 -10 8 -3 15 -1 15 4 0 6 -7 10 -15 10 -8 0
-15 -2 -15 -4z"/>
<path d="M3153 3955 c-3 -9 -3 -18 -1 -21 3 -3 8 4 11 16 6 23 -1 27 -10 5z"/>
<path d="M2267 3953 c-10 -9 -9 -51 2 -57 4 -3 7 -18 5 -33 -4 -25 -3 -24 10
7 19 46 19 51 -1 43 -11 -4 -14 -3 -9 5 4 7 14 12 22 12 8 0 14 7 14 15 0 15
-31 21 -43 8z"/>
<path d="M2577 3942 c1 -8 3 -18 3 -23 0 -6 5 -7 10 -4 6 3 10 13 10 21 0 8
-4 13 -9 10 -5 -4 -11 -3 -14 1 -2 5 -2 2 0 -5z"/>
<path d="M2545 3940 c-3 -5 -1 -10 4 -10 6 0 11 5 11 10 0 6 -2 10 -4 10 -3 0
-8 -4 -11 -10z"/>
<path d="M2550 3909 c0 -5 5 -7 10 -4 6 3 10 8 10 11 0 2 -4 4 -10 4 -5 0 -10
-5 -10 -11z"/>
<path d="M2663 3887 c-51 -25 -63 -36 -63 -55 0 -20 3 -22 14 -12 12 9 21 5
45 -22 17 -18 33 -41 36 -50 12 -34 75 -16 75 22 0 13 -2 13 -10 0 -16 -26
-21 11 -7 52 10 29 16 35 25 26 9 -9 14 -5 20 13 12 30 4 55 -11 40 -15 -15
-28 -14 -24 1 4 23 -37 16 -100 -15z"/>
<path d="M3110 3913 c0 -5 7 -18 15 -29 8 -10 15 -30 15 -43 0 -21 3 -23 32
-17 l32 6 -24 -25 c-13 -14 -21 -28 -18 -31 13 -12 84 -15 111 -5 30 12 28 31
-3 31 -13 0 -17 5 -14 15 4 9 -3 16 -21 21 -14 3 -24 11 -22 18 3 10 -15 36
-26 36 -3 0 -3 -10 0 -22 4 -22 3 -22 -11 2 -8 14 -17 23 -19 20 -3 -3 -14 4
-26 14 -12 11 -21 15 -21 9z"/>
<path d="M2520 3880 c0 -11 2 -20 4 -20 2 0 6 9 9 20 3 11 1 20 -4 20 -5 0 -9
-9 -9 -20z"/>
<path d="M2522 3841 c-34 -28 -58 -52 -53 -55 5 -3 11 -14 14 -25 3 -15 1 -18
-12 -14 -12 3 -11 1 3 -11 28 -22 39 -20 34 8 -3 15 2 27 14 35 23 15 28 14
28 -4 0 -9 -6 -12 -15 -9 -20 8 -19 -3 3 -26 17 -19 18 -17 35 62 9 45 16 83
14 85 -2 2 -31 -19 -65 -46z"/>
<path d="M2400 3811 c-51 -10 -69 -23 -45 -31 28 -10 64 0 76 21 5 11 8 18 7
18 -2 -1 -19 -4 -38 -8z"/>
<path d="M2613 3798 c-12 -20 -10 -58 3 -58 6 0 14 10 18 23 8 32 7 47 -3 47
-6 0 -13 -6 -18 -12z"/>
<path d="M2255 3780 c10 -11 20 -20 23 -20 3 0 -3 9 -13 20 -10 11 -20 20 -23
20 -3 0 3 -9 13 -20z"/>
<path d="M1590 3770 c0 -12 8 -12 35 0 18 8 17 9 -7 9 -16 1 -28 -3 -28 -9z"/>
<path d="M3030 3770 c0 -5 5 -10 11 -10 5 0 7 5 4 10 -3 6 -8 10 -11 10 -2 0
-4 -4 -4 -10z"/>
<path d="M3082 3763 c5 -25 28 -28 28 -4 0 12 -6 21 -16 21 -9 0 -14 -7 -12
-17z"/>
<path d="M2277 3720 c-48 -9 -57 -18 -33 -36 16 -11 21 -11 28 -1 6 9 8 9 8 0
0 -7 -8 -16 -17 -22 -15 -8 -16 -12 -5 -22 6 -7 12 -21 12 -30 0 -9 7 -29 15
-45 13 -25 13 -29 -1 -37 -10 -6 -13 -17 -10 -35 7 -31 -5 -54 -24 -50 -8 2
-14 -1 -15 -7 0 -5 -11 -22 -24 -37 -20 -22 -27 -25 -39 -16 -11 10 -13 8 -10
-12 3 -23 0 -25 -32 -22 -19 2 -47 12 -62 23 -38 27 -47 24 -13 -5 l29 -25
-26 -6 c-14 -4 -34 -2 -45 3 -13 7 -24 6 -37 -4 -11 -7 -18 -15 -15 -17 2 -2
40 -26 85 -53 67 -41 79 -52 67 -62 -18 -17 -16 -29 5 -34 21 -6 67 36 57 52
-3 6 3 10 15 10 26 0 37 27 21 53 -12 19 -11 20 21 13 18 -4 38 -9 45 -10 22
-4 25 -13 11 -35 -11 -18 -10 -23 7 -36 20 -16 20 -16 -2 -12 -13 3 -23 1 -23
-3 0 -4 -16 -8 -36 -8 -48 0 -51 -7 -15 -28 48 -28 22 -52 -31 -29 -13 5 -21
0 -29 -19 -7 -14 -30 -37 -52 -52 -30 -20 -36 -28 -26 -35 9 -5 16 -3 20 8 4
14 7 12 12 -7 6 -23 7 -23 26 -6 19 17 19 17 14 -26 -3 -24 -10 -51 -15 -61
-11 -21 17 -61 34 -51 5 3 21 3 36 -1 l27 -7 -24 -17 -24 -18 27 -5 c16 -3 31
0 38 9 10 13 13 13 18 -3 6 -15 13 -11 54 26 l48 44 -7 -37 c-6 -30 -4 -41 10
-51 14 -10 16 -21 10 -59 -6 -42 -9 -45 -26 -36 -10 5 -19 16 -19 23 0 10 -17
15 -55 18 -30 1 -55 2 -55 1 0 -1 21 -18 46 -38 56 -42 49 -45 -15 -8 -109 63
-215 149 -205 165 3 4 -6 23 -20 41 -37 48 -32 57 9 17 42 -41 45 -34 8 21
-21 32 -31 39 -47 34 -12 -4 -57 -17 -101 -29 -44 -13 -90 -26 -101 -30 -18
-5 -21 -3 -20 16 1 13 -2 31 -6 41 -5 10 -5 17 2 18 5 1 16 2 23 3 6 1 23 -4
37 -11 14 -7 27 -9 30 -3 4 6 20 5 43 -2 35 -11 38 -10 64 19 47 52 62 75 56
89 -6 17 -43 19 -44 2 0 -7 -6 -1 -13 14 -8 20 -15 25 -26 18 -8 -5 -22 -4
-33 2 -12 6 -17 6 -13 0 3 -5 -1 -13 -10 -16 -17 -6 -16 4 1 47 5 12 2 17 -10
17 -11 0 -15 5 -11 15 3 9 0 15 -9 15 -9 0 -13 -11 -13 -32 1 -18 -4 -34 -10
-36 -6 -2 -14 -19 -18 -37 -4 -23 -10 -32 -20 -28 -10 4 -13 18 -10 54 3 29 1
47 -5 44 -5 -4 -5 4 1 19 9 24 8 25 -15 16 -16 -6 -25 -5 -28 3 -2 7 -8 8 -13
4 -5 -5 -1 -13 9 -18 9 -6 17 -18 17 -27 0 -10 5 -23 12 -30 7 -7 8 -12 3 -12
-6 0 -4 -4 3 -9 10 -6 10 -10 -1 -19 -11 -10 -23 -6 -55 18 -23 17 -49 30 -57
30 -8 0 -15 4 -15 10 0 5 7 7 15 4 8 -4 15 -1 15 4 0 6 -9 13 -19 17 -26 8
-35 47 -14 62 11 9 19 10 23 3 7 -12 40 -3 40 11 0 5 6 9 13 9 6 1 26 7 42 14
l30 13 -45 -2 c-84 -4 -121 -16 -157 -52 -36 -37 -37 -41 -9 -105 9 -21 13
-38 9 -38 -14 1 -53 38 -53 51 0 11 -2 11 -12 0 -11 -10 -9 -15 7 -27 63 -44
77 -71 51 -93 -11 -9 -19 -9 -36 1 -18 11 -22 11 -31 -4 -6 -10 -21 -18 -33
-18 -19 0 -25 -7 -30 -35 -4 -19 -11 -35 -17 -35 -6 0 -6 7 1 19 5 11 10 34
10 51 0 37 17 118 31 142 12 24 11 48 -2 26 -9 -16 -11 -16 -29 2 -23 23 -95
28 -103 8 -4 -8 -6 -7 -6 4 -1 12 -13 17 -53 20 -51 4 -54 2 -96 -40 -23 -24
-46 -41 -51 -38 -5 3 -20 -3 -32 -14 -17 -14 -20 -20 -9 -20 18 -1 -31 -25
-60 -29 -5 0 -17 -16 -26 -33 -16 -31 -45 -60 -52 -53 -6 6 49 95 59 95 5 0 9
4 9 10 0 5 -6 7 -12 5 -7 -3 -35 4 -63 15 -46 19 -37 20 32 3 24 -5 26 -4 16
9 -7 8 -31 23 -53 33 -32 15 -45 16 -65 7 -31 -14 -32 -32 -2 -33 14 -1 10 -4
-12 -8 -19 -3 -37 -12 -39 -20 -3 -10 0 -12 12 -8 15 6 15 4 -1 -26 -9 -17
-16 -35 -15 -39 1 -5 -5 -8 -13 -8 -9 0 -15 -9 -15 -21 0 -17 4 -20 23 -15 12
3 26 6 31 6 4 0 6 9 3 20 -3 11 -1 20 3 20 9 0 25 -40 22 -53 -4 -14 28 -66
61 -99 31 -32 66 -112 54 -124 -3 -3 -21 -6 -40 -7 -40 -1 -76 21 -55 34 7 5
16 3 20 -4 6 -9 8 -9 8 0 0 6 -16 20 -35 32 -38 22 -60 61 -41 73 7 5 5 8 -5
8 -16 0 -34 28 -43 65 -2 11 -4 3 -3 -18 1 -21 5 -40 9 -43 4 -3 5 -11 1 -19
-3 -9 1 -15 9 -15 19 0 38 -34 28 -50 -7 -11 -13 -10 -33 3 -14 9 -28 25 -31
35 -8 24 -61 54 -89 50 -42 -5 -49 11 -31 71 3 11 7 11 19 1 8 -7 15 -9 16 -4
0 5 4 -1 10 -14 5 -13 13 -20 19 -17 5 3 10 1 10 -4 0 -23 29 -10 44 19 14 29
13 32 -10 55 -25 25 -23 27 21 29 11 1 21 9 23 21 l4 20 -17 -20 c-16 -20 -16
-20 -9 4 5 21 3 23 -15 18 -11 -3 -21 -2 -21 2 0 4 -23 7 -51 7 -48 0 -49 0
-25 -13 33 -17 33 -33 1 -33 -28 0 -32 -9 -13 -29 11 -10 10 -12 0 -9 -8 2
-22 -12 -32 -30 -17 -30 -19 -32 -29 -15 -9 16 -12 16 -21 3 -5 -8 -10 -28
-10 -44 0 -28 1 -28 38 -22 34 5 40 3 50 -18 8 -18 7 -27 -5 -39 -21 -20 -10
-34 24 -31 22 1 29 -3 30 -17 2 -23 -15 -25 -24 -3 -3 10 -8 12 -12 5 -5 -7
-15 -6 -31 2 -31 16 -105 22 -96 9 3 -5 -3 -20 -15 -33 -11 -12 -17 -29 -14
-37 3 -7 5 -19 5 -24 0 -6 3 -9 6 -5 6 6 21 -4 54 -37 20 -20 20 -20 20 0 0
14 3 16 9 6 6 -11 17 -9 55 9 37 17 50 19 59 10 9 -9 6 -16 -13 -31 -14 -11
-35 -20 -48 -20 l-22 0 20 -37 c11 -21 20 -43 20 -50 0 -7 9 -13 21 -13 16 0
19 -4 14 -17 -12 -31 -36 -196 -30 -211 3 -9 -1 -12 -15 -7 -20 6 -28 -9 -10
-20 17 -10 11 -25 -10 -25 -24 0 -28 -38 -5 -46 8 -4 12 -10 9 -16 -4 -5 -11
-5 -19 2 -9 7 -16 6 -25 -5 -11 -14 -10 -17 8 -22 12 -3 22 -10 22 -15 0 -6 6
-8 14 -5 16 6 43 -19 32 -30 -3 -3 -6 0 -6 8 0 11 -2 11 -10 -1 -13 -20 -13
-100 1 -100 5 0 7 -4 4 -10 -7 -11 36 -13 82 -4 25 5 30 10 29 35 -1 32 -6 35
-24 17 -18 -18 -23 -4 -11 32 9 23 9 38 1 50 -8 13 -6 20 7 31 12 11 16 27 13
63 -3 35 -7 45 -15 37 -16 -16 -44 -13 -51 5 -20 51 7 191 52 271 34 62 111
127 182 153 33 12 60 29 60 36 0 11 17 14 70 14 58 0 68 3 64 15 -4 8 -1 15 4
15 6 0 13 -8 15 -17 4 -16 5 -16 6 -2 0 9 8 20 17 23 14 5 15 4 4 -9 -8 -9 -8
-15 -2 -15 6 0 13 3 16 8 2 4 61 7 130 7 97 0 125 3 121 12 -9 25 11 56 38 59
l26 3 -24 -27 c-13 -14 -21 -30 -18 -35 3 -5 9 -3 14 4 6 10 9 11 9 2 0 -7 11
-13 25 -13 20 0 27 6 32 31 l6 31 14 -39 c8 -21 14 -50 14 -65 0 -16 2 -28 4
-28 2 0 20 17 39 37 34 37 35 39 29 98 -6 61 -18 89 -34 79 -5 -3 -6 3 -3 13
5 17 5 17 -6 1 -8 -14 -7 -24 7 -45 l17 -28 -22 19 c-23 20 -23 20 -17 0 6
-18 6 -18 -8 -1 -15 18 -16 18 -26 0 -10 -17 -10 -17 -11 3 0 12 -6 27 -14 34
-12 9 -13 17 -4 36 6 13 17 24 23 24 7 0 18 7 25 16 12 13 17 9 42 -31 15 -25
47 -58 69 -73 23 -15 56 -42 74 -59 31 -32 65 -44 65 -23 0 18 30 -2 100 -69
38 -37 70 -76 71 -87 0 -19 0 -19 8 0 7 18 8 18 14 -5 12 -42 8 -116 -6 -128
-8 -6 -16 -9 -18 -7 -2 2 -16 6 -31 10 -22 5 -31 1 -43 -18 -20 -31 -17 -38
59 -116 63 -65 71 -91 12 -40 -20 18 -36 28 -36 24 0 -5 -8 5 -18 21 -11 17
-26 36 -35 44 -10 7 -17 20 -17 27 0 8 -9 19 -20 26 -11 7 -20 20 -20 28 -1
19 -24 50 -38 50 -6 0 -9 7 -6 15 10 24 -22 18 -43 -9 -15 -19 -21 -21 -31
-10 -9 10 -8 14 8 19 11 3 27 16 37 29 10 12 27 27 38 34 18 10 17 11 -13 12
-22 0 -35 -6 -39 -17 -10 -26 -26 -40 -41 -35 -6 2 -12 -1 -12 -6 0 -6 -8 -9
-17 -7 -10 1 -26 -2 -35 -6 -10 -6 -19 -5 -23 1 -3 6 -17 7 -30 4 -19 -5 -23
-2 -21 13 4 19 -11 43 -25 43 -5 0 -9 -11 -9 -25 0 -13 -8 -28 -17 -34 -17 -9
-17 -10 0 -28 9 -11 17 -25 17 -32 0 -9 8 -11 25 -7 18 5 25 2 25 -9 0 -8 8
-15 19 -15 10 0 35 -7 54 -15 20 -8 49 -15 64 -15 38 0 114 -31 110 -44 -2 -6
7 -28 20 -48 22 -36 20 -51 -4 -27 -9 9 -10 -1 -6 -41 4 -42 3 -52 -8 -48 -9
3 -13 16 -11 37 3 30 2 32 -17 21 -12 -6 -21 -15 -21 -20 0 -6 -3 -10 -8 -10
-4 0 -6 18 -4 40 4 41 -5 57 -44 78 -18 9 -25 8 -38 -7 -11 -13 -27 -17 -49
-15 -18 3 -45 -1 -60 -7 -22 -9 -31 -9 -40 1 -9 10 -9 11 0 6 6 -3 14 -2 18 4
5 9 -15 15 -38 11 -5 -1 -6 8 -2 19 5 17 3 21 -12 18 -10 -2 -17 2 -16 8 3 19
-31 31 -66 22 -28 -8 -32 -13 -29 -33 l5 -24 -35 24 c-20 13 -39 22 -44 19
-11 -7 -10 13 2 36 18 33 -103 126 -204 155 -89 26 -207 5 -270 -47 -38 -31
-45 -48 -21 -48 8 0 15 4 15 9 0 4 11 6 25 3 14 -2 25 -8 25 -13 0 -5 8 -9 18
-9 16 -1 16 -1 -1 -11 -14 -8 -15 -14 -7 -24 6 -8 18 -11 26 -8 8 3 14 0 14
-6 0 -7 -15 -11 -40 -9 -67 3 -56 -10 14 -17 97 -11 69 -26 -35 -20 -81 5 -89
3 -89 -13 0 -10 11 -33 25 -52 17 -23 22 -37 15 -45 -5 -7 -6 -15 -2 -19 4 -4
0 -6 -8 -4 -8 1 -14 -3 -15 -10 0 -7 -6 -16 -13 -21 -8 -5 -12 -17 -10 -27 4
-22 74 -38 82 -20 3 7 5 6 5 -1 1 -7 8 -13 17 -13 19 0 13 -24 -7 -26 -8 -1
-17 -2 -22 -3 -4 0 4 -19 18 -41 20 -32 22 -38 7 -33 -9 3 -23 10 -30 16 -8 6
-12 6 -12 -2 0 -7 -5 -9 -12 -5 -7 4 -4 -3 7 -15 11 -13 34 -29 51 -36 18 -7
42 -23 53 -34 20 -20 23 -20 37 -6 22 22 34 10 27 -27 -4 -20 -3 -29 4 -25 6
4 13 -2 16 -14 4 -16 3 -18 -9 -8 -17 14 -19 0 -5 -49 9 -30 8 -34 -15 -42
-13 -5 -24 -16 -24 -25 0 -16 -27 -20 -49 -6 -8 5 -20 7 -28 4 -15 -6 -18 -49
-3 -58 6 -3 10 -14 10 -24 0 -14 7 -18 25 -15 21 2 25 -1 20 -16 -8 -24 26
-45 43 -28 9 9 12 9 12 0 0 -8 9 -10 28 -6 26 6 26 6 7 -9 -16 -13 -17 -17 -6
-31 8 -9 9 -16 3 -16 -6 0 -14 9 -17 21 -4 13 -12 18 -22 15 -18 -7 -66 24
-111 73 -19 20 -33 29 -32 21 1 -8 2 -26 1 -39 -1 -24 -1 -24 -16 -5 -14 18
-14 17 -15 -13 0 -17 -5 -35 -12 -39 -7 -5 -9 0 -6 14 4 12 0 26 -8 33 -10 8
-14 8 -14 0 0 -6 -7 -11 -15 -11 -20 0 -8 -29 28 -69 19 -22 36 -31 57 -31 27
0 30 3 30 30 0 27 3 30 32 30 29 0 30 -1 15 -18 -10 -10 -17 -22 -17 -25 0
-13 28 -7 40 8 10 12 15 13 21 4 10 -17 -19 -38 -53 -39 -42 0 -42 -18 0 -25
20 -3 44 -11 52 -16 11 -8 6 -9 -20 -4 -19 3 -73 13 -119 21 -47 9 -93 20
-103 25 -15 8 -17 5 -14 -26 1 -19 -1 -36 -6 -37 -5 -2 -10 -18 -12 -36 -4
-26 -1 -32 15 -32 30 0 22 -20 -8 -21 -18 -1 -22 -3 -10 -6 17 -5 18 -33 0
-95 -7 -27 14 -21 60 16 23 18 57 41 75 51 38 19 132 27 129 10 -1 -5 9 -9 22
-7 15 2 21 0 17 -7 -7 -10 6 -15 27 -12 4 1 21 -6 38 -15 34 -17 36 -13 -29
-85 -20 -23 -21 -27 -7 -33 9 -3 27 -3 41 0 18 5 24 2 24 -11 0 -15 3 -14 18
4 16 19 19 20 44 7 26 -14 27 -13 37 12 8 22 10 15 10 -40 1 -52 -2 -68 -13
-68 -7 0 -21 -11 -30 -25 -16 -24 -16 -25 9 -25 29 0 33 -15 8 -28 -17 -10
-15 -21 14 -62 17 -25 17 -25 -2 -10 -11 8 -23 20 -28 25 -4 6 -9 1 -13 -12
-6 -21 -35 -37 -64 -34 -12 2 -12 0 -1 -7 21 -15 81 7 74 27 -4 11 -3 13 4 6
6 -5 14 -26 18 -45 4 -21 3 -30 -3 -22 -6 8 -16 -12 -32 -63 -13 -41 -28 -75
-32 -75 -5 0 -6 9 -3 20 6 18 4 19 -18 11 -14 -6 -28 -7 -33 -3 -4 4 -3 1 1
-7 6 -10 4 -13 -6 -9 -11 4 -16 -2 -17 -23 -2 -27 0 -29 33 -29 21 0 35 5 36
13 1 6 8 -17 17 -52 19 -73 42 -93 42 -37 0 26 4 36 16 36 11 0 15 -8 14 -27
-4 -57 -1 -73 15 -67 8 4 15 12 15 19 0 22 31 27 46 8 13 -17 13 -17 14 0 0
10 10 21 22 26 14 5 17 10 10 15 -7 4 -12 12 -12 19 0 8 3 8 12 -1 18 -18 31
-14 25 8 -4 14 1 25 14 33 22 14 25 27 5 27 -8 0 -16 6 -19 14 -3 8 -15 12
-31 9 -17 -4 -28 0 -32 10 -3 9 -12 13 -21 10 -18 -7 -34 14 -26 34 3 8 13 13
22 11 9 -1 22 1 30 6 10 6 20 2 33 -14 10 -12 18 -17 18 -11 0 6 8 11 17 11
13 0 10 7 -12 30 -16 17 -38 30 -50 30 -12 0 -30 7 -41 16 -18 14 -18 15 4 4
13 -7 26 -10 28 -8 7 7 16 159 15 231 -2 75 14 85 25 16 5 -28 11 -39 24 -39
10 0 17 7 16 16 0 9 5 19 12 21 7 3 10 -1 6 -11 -4 -10 0 -18 10 -22 21 -8 20
-33 -3 -63 -22 -29 -17 -63 7 -53 15 5 15 4 3 -11 -12 -15 -11 -17 2 -17 9 0
27 -16 40 -35 l24 -36 7 43 c4 24 7 54 7 68 -1 18 2 21 8 11 13 -20 24 4 17
37 -7 34 8 65 17 33 3 -15 13 -21 31 -21 35 0 33 -14 -6 -39 -22 -13 -27 -21
-16 -21 9 0 20 5 23 10 10 16 51 11 69 -8 33 -37 54 -94 45 -124 -6 -22 -4
-33 10 -47 13 -13 15 -22 8 -39 -6 -12 -7 -25 -4 -29 9 -8 37 17 37 33 0 26
39 -8 46 -39 4 -19 11 -27 20 -23 7 3 16 1 19 -3 7 -13 45 -21 45 -10 0 5 -20
24 -45 41 -39 28 -74 83 -60 96 3 3 5 0 5 -6 0 -7 4 -12 9 -12 4 0 6 11 3 25
-2 14 -8 22 -13 19 -5 -3 -9 -1 -9 4 0 14 62 7 97 -11 39 -21 47 -21 39 -2 -4
12 3 15 36 15 49 0 105 -18 112 -37 3 -7 3 -33 0 -57 -8 -54 -36 -68 -65 -33
-23 27 -24 47 -3 47 14 0 15 2 3 17 -13 15 -14 15 -17 0 -2 -10 -10 -17 -17
-17 -7 0 -15 -4 -17 -9 -1 -5 -14 -4 -28 2 -20 8 -21 11 -8 14 30 8 8 33 -29
33 -20 0 -32 -4 -28 -10 3 -6 1 -10 -4 -10 -24 0 -10 -49 19 -72 92 -71 96
-73 77 -51 -17 20 -17 20 7 16 16 -3 23 -10 19 -19 -3 -9 2 -14 16 -14 12 0
21 6 21 15 0 13 2 13 14 3 7 -7 12 -17 10 -23 -3 -6 17 -9 52 -7 49 4 56 2 61
-17 3 -12 9 -21 13 -21 5 0 10 -10 12 -22 2 -13 9 -23 16 -23 7 0 17 -7 23
-15 8 -11 9 -9 4 10 -6 24 -5 24 9 6 9 -11 16 -24 16 -29 0 -4 5 -5 10 -2 11
7 14 48 3 59 -7 7 -12 46 -6 46 10 0 48 -37 68 -65 13 -19 14 -19 24 8 6 15
15 27 20 27 11 0 26 -20 26 -34 0 -5 6 -11 14 -14 10 -3 12 0 8 12 -7 19 13
22 30 5 9 -9 21 -6 47 11 20 12 36 26 36 31 0 13 -6 11 -25 -8 -14 -14 -18
-14 -26 -2 -7 11 -9 10 -9 -4 0 -10 -5 -15 -11 -12 -6 4 -8 9 -5 12 3 3 -5 14
-17 23 -31 25 -16 34 27 16 20 -8 36 -11 36 -7 0 5 9 11 21 14 l20 6 -20 20
c-12 12 -21 26 -21 31 0 17 -21 11 -52 -15 -16 -14 -39 -25 -51 -25 -20 0 -20
0 -1 14 10 8 16 18 11 22 -11 12 -66 -46 -69 -73 l-3 -25 -24 21 c-24 21 -35
25 -59 22 -10 -2 -12 4 -7 18 4 12 2 21 -4 21 -11 0 -15 -15 -11 -35 1 -5 -2
-7 -6 -3 -4 4 -13 3 -21 -4 -11 -9 -18 -7 -31 6 -16 16 -15 17 12 10 22 -5 28
-4 24 7 -4 13 -56 53 -81 62 -7 2 -9 7 -6 11 3 4 18 2 33 -4 67 -25 126 -4
126 46 0 13 4 24 9 24 5 0 12 15 15 34 7 34 45 92 46 69 0 -6 -6 -13 -12 -16
-10 -3 -8 -13 6 -40 10 -20 16 -47 14 -61 -8 -43 9 -19 21 28 9 38 8 51 -5 80
-13 27 -14 40 -6 64 8 24 8 32 -4 36 -8 3 -14 1 -14 -5 0 -6 -5 -7 -11 -4 -6
5 -4 11 7 19 9 7 14 18 10 24 -4 7 8 17 30 27 35 14 36 17 22 32 -15 14 -14
19 9 55 25 37 27 38 46 21 24 -22 79 -105 102 -154 17 -36 17 -37 -6 -69 -18
-23 -25 -28 -27 -16 -5 26 -22 18 -22 -10 0 -14 4 -23 9 -20 9 6 21 -40 21
-81 0 -36 20 -24 47 28 24 47 29 84 13 94 -19 12 -10 25 14 19 22 -5 24 -3 21
28 -3 45 9 65 46 73 32 7 109 -19 109 -37 0 -4 10 -18 21 -29 17 -17 23 -19
30 -8 14 22 10 33 -6 19 -13 -11 -15 -8 -15 18 0 58 67 172 101 172 14 0 19 7
19 30 0 33 5 37 25 16 11 -11 11 -17 2 -32 -7 -11 -20 -36 -30 -57 l-17 -39
30 7 c20 4 30 3 30 -5 0 -7 -7 -10 -15 -6 -9 3 -15 0 -15 -9 0 -8 9 -15 19
-15 38 0 35 -23 -9 -64 -43 -39 -62 -83 -33 -71 8 3 17 5 19 5 3 0 3 4 0 9 -4
5 11 7 34 4 33 -5 40 -3 40 11 0 9 8 16 19 16 11 0 27 7 35 16 9 8 20 12 26 9
5 -3 10 -1 10 6 0 7 8 9 21 6 20 -5 20 -5 3 14 -19 21 -18 21 34 3 9 -4 28 -7
42 -8 14 -1 37 -3 52 -4 14 -1 41 -16 58 -33 30 -31 31 -31 37 -10 4 17 13 21
49 21 24 0 44 -4 44 -9 0 -4 -24 -31 -54 -59 -61 -58 -68 -58 -126 -8 -29 25
-36 27 -38 13 -2 -9 -8 -17 -13 -17 -6 0 -7 5 -3 11 4 7 1 9 -7 6 -8 -3 -49
-13 -91 -23 -84 -19 -102 -40 -53 -62 32 -15 75 -16 75 -2 0 6 -4 10 -10 10
-16 0 -11 37 6 44 34 13 66 5 89 -21 13 -16 25 -33 25 -40 0 -20 -62 -35 -167
-40 -57 -3 -101 -8 -99 -12 6 -9 219 4 241 16 64 33 80 44 77 54 -1 6 3 9 10
6 7 -2 31 8 54 24 35 24 41 25 50 11 6 -9 15 -12 22 -8 18 11 15 26 -7 34 -18
7 -17 9 12 42 27 30 38 35 98 41 78 9 156 40 166 66 3 10 19 33 34 50 16 18
33 50 40 71 9 32 8 44 -8 78 -15 31 -24 39 -45 39 -21 -1 -25 2 -16 12 6 8 8
17 4 20 -4 4 -11 1 -16 -7 -5 -8 -12 -11 -16 -7 -4 4 -13 2 -21 -4 -10 -9 -13
-8 -13 1 0 7 -7 10 -15 6 -19 -7 -20 18 -1 34 13 10 15 60 6 90 -1 3 -1 17 0
32 1 14 -4 29 -10 33 -17 10 -41 -26 -35 -52 4 -17 1 -23 -11 -23 -13 0 -14
-3 -5 -14 6 -7 9 -21 5 -29 -5 -15 -8 -15 -29 -1 -26 17 -45 12 -45 -13 0 -11
7 -14 25 -11 13 3 22 1 19 -3 -3 -5 0 -9 5 -9 6 0 11 -7 11 -15 0 -19 -9 -19
-31 1 -20 18 -39 11 -39 -14 0 -15 2 -15 10 -2 8 13 11 13 26 -2 9 -9 14 -21
10 -26 -9 -15 -76 -25 -90 -13 -7 6 -17 6 -26 1 -48 -30 -25 48 44 149 37 55
56 92 56 112 0 35 16 69 31 69 7 0 10 -14 7 -34 -3 -24 0 -32 9 -29 8 3 10 20
6 54 -4 32 -1 58 7 74 7 13 10 32 8 43 -4 14 -1 19 11 18 11 -1 15 6 13 23 -3
27 5 23 22 -11 8 -15 21 -23 39 -23 15 -1 32 -6 39 -13 18 -18 42 -14 56 9 12
20 9 28 -34 92 -53 77 -88 103 -150 113 -89 13 -103 -15 -60 -121 25 -63 25
-119 -1 -74 l-13 24 6 -26 c3 -16 -1 -39 -10 -57 -8 -16 -13 -32 -11 -34 3 -3
7 -33 10 -67 3 -52 1 -65 -15 -81 -11 -11 -33 -20 -50 -20 -16 0 -45 -11 -64
-24 -42 -28 -133 -59 -147 -50 -6 3 -21 2 -32 -4 -12 -6 -59 -25 -105 -43 -62
-24 -86 -29 -95 -20 -8 8 -8 11 3 11 7 0 11 3 7 6 -3 3 -11 3 -17 -1 -8 -5 -8
-10 0 -20 9 -11 7 -15 -12 -19 -47 -10 -87 -12 -82 -5 2 5 -5 13 -17 20 -21
11 -21 12 17 26 21 9 50 15 64 15 14 0 31 5 38 10 7 6 40 12 74 14 43 2 64 8
70 19 5 8 15 15 22 15 8 0 24 9 37 20 21 17 22 19 6 20 -10 0 -28 -5 -40 -12
-24 -13 -65 -11 -83 3 -6 5 -19 6 -28 3 -9 -4 -16 -3 -15 2 1 5 0 12 -1 17 -1
4 -3 11 -4 15 -2 14 -34 42 -47 42 -9 0 -9 -3 0 -14 10 -11 7 -14 -14 -12 -28
1 -33 11 -10 20 8 3 15 9 15 14 0 5 -41 51 -92 103 -51 52 -89 88 -84 82 10
-18 0 -16 -24 4 -11 10 -20 23 -20 31 0 7 -4 11 -9 7 -6 -3 -15 4 -21 15 -6
12 -20 30 -31 41 -23 23 -24 42 -4 63 17 16 20 30 6 21 -13 -7 -43 24 -35 36
3 6 -3 13 -15 16 -12 3 -21 10 -21 15 0 5 -4 7 -9 4 -5 -3 -11 1 -15 9 -3 8
-11 15 -17 15 -7 0 -18 8 -26 18 -8 10 -5 -4 7 -38 11 -30 20 -62 20 -71 0 -9
7 -22 15 -29 9 -7 13 -20 10 -28 -3 -8 2 -39 10 -69 9 -29 13 -58 10 -63 -5
-8 13 -59 25 -70 3 -3 5 -23 6 -45 1 -28 5 -40 15 -39 10 1 15 -13 17 -42 2
-34 -1 -42 -12 -38 -7 3 -16 -2 -19 -10 -4 -9 -2 -16 3 -16 6 0 10 5 10 10 0
7 7 7 20 0 11 -6 20 -16 19 -23 -3 -16 10 -66 24 -95 9 -18 7 -27 -10 -50 -28
-37 -148 -99 -203 -105 -43 -4 -123 -32 -182 -63 -15 -8 -29 -10 -32 -5 -4 5
0 12 6 14 7 3 4 6 -7 7 -23 1 -57 24 -49 33 3 3 19 1 35 -5 17 -6 45 -7 67 -2
20 4 44 9 53 9 39 4 119 40 124 55 3 10 17 22 30 28 14 6 25 18 25 27 0 8 5
15 10 15 6 0 10 5 10 11 0 7 -7 8 -17 4 -10 -4 -25 -9 -33 -12 -13 -4 -13 -4
0 6 8 6 11 11 5 12 -25 3 -52 -4 -69 -19 -18 -16 -19 -16 -13 2 6 15 3 17 -12
13 -11 -2 -28 1 -38 8 -10 7 -27 14 -38 16 -13 3 -22 15 -25 34 -4 25 -10 30
-35 32 -20 2 -24 0 -13 -5 11 -4 14 -12 9 -20 -7 -12 -12 -12 -29 -1 -16 10
-21 22 -19 51 1 26 7 38 17 38 10 0 6 8 -12 24 -16 13 -28 31 -28 40 0 10 -8
16 -21 16 -17 0 -19 3 -10 14 13 16 -4 66 -22 66 -6 0 -1 9 11 20 26 24 48 26
60 4 7 -13 11 -14 17 -4 4 7 3 15 -2 19 -5 3 -12 14 -16 24 -5 13 -1 17 16 17
17 0 19 -2 8 -9 -10 -7 -12 -13 -5 -23 14 -17 16 -68 4 -68 -6 0 -10 -7 -10
-16 0 -14 2 -15 17 -3 15 12 16 12 10 -3 -6 -16 3 -23 26 -19 4 0 7 -3 7 -9 0
-5 -3 -10 -7 -11 -5 0 -16 -2 -25 -4 -10 -2 -18 3 -18 10 0 15 -27 28 -34 17
-3 -5 -1 -14 5 -22 5 -8 9 -11 9 -6 0 5 9 -3 21 -18 21 -27 45 -34 51 -15 6
19 48 0 48 -22 0 -11 4 -18 8 -15 10 6 52 -38 52 -54 0 -7 6 -7 19 0 27 14 30
13 26 -10 -2 -12 0 -18 6 -14 5 3 16 1 24 -6 7 -6 19 -10 27 -9 24 3 39 -1 34
-9 -3 -5 0 -9 7 -9 7 0 24 -3 40 -6 15 -3 27 -2 27 2 0 14 -24 29 -42 26 -10
-2 -18 1 -18 6 0 5 8 9 18 10 13 0 12 3 -5 11 -13 6 -23 14 -23 18 0 4 -11 5
-25 2 -15 -2 -25 0 -25 7 0 6 5 11 11 11 8 0 7 5 -2 16 -8 9 -21 13 -35 10
-13 -4 -26 -2 -29 4 -4 6 1 7 10 3 13 -4 16 -1 13 13 -2 13 -13 20 -36 22 -24
2 -32 8 -32 23 0 26 3 35 13 31 14 -4 7 19 -8 24 -14 6 -13 8 2 20 17 12 16
13 -6 14 -20 0 -23 4 -18 26 3 19 -3 33 -24 55 -16 17 -26 35 -23 41 4 6 8 24
9 39 2 24 0 27 -15 19 -11 -6 -21 -5 -30 3 -10 9 -11 9 -6 0 4 -7 2 -13 -3
-13 -10 0 -15 14 -12 33 1 5 -3 6 -8 3 -5 -4 -12 -2 -16 4 -10 16 -25 12 -19
-5 4 -9 0 -15 -10 -15 -9 0 -16 6 -16 13 0 7 -10 13 -22 14 -13 0 -17 -1 -10
-4 6 -3 12 -9 12 -15 0 -6 -7 -8 -15 -4 -8 3 -15 1 -15 -4 0 -14 18 -21 25
-10 9 15 25 12 25 -4 0 -8 -7 -17 -16 -20 -23 -9 -74 48 -67 74 4 14 0 20 -11
20 -9 0 -16 -4 -16 -10 0 -5 6 -10 13 -10 8 0 7 -3 -3 -9 -8 -6 -17 -8 -20 -6
-3 1 -13 -12 -22 -31 -14 -28 -15 -34 -3 -34 7 0 17 -10 21 -22 9 -26 9 -24
-1 -55 -4 -14 -2 -23 4 -23 6 0 11 8 11 18 0 13 2 14 9 4 4 -8 12 -13 17 -12
4 1 11 -8 16 -19 9 -24 -16 -30 -29 -7 -5 9 -15 11 -28 5 -11 -4 -14 -8 -7 -8
15 -1 16 -47 1 -56 -6 -4 -13 2 -16 14 -3 11 -10 18 -15 15 -5 -3 -7 -11 -5
-18 3 -6 -4 -12 -14 -12 -14 0 -15 3 -7 13 8 10 6 19 -10 36 -15 16 -18 27
-12 37 12 19 13 33 1 26 -9 -6 -24 34 -16 42 3 3 11 -1 19 -7 13 -11 16 -7 24
21 12 43 4 65 -14 41 -12 -17 -13 -16 -7 5 3 12 10 22 15 22 5 0 1 12 -10 28
-25 37 -37 62 -18 38 15 -18 16 -18 16 -2 0 10 10 26 23 37 l22 19 -22 6 c-13
3 -23 7 -23 9 0 16 25 65 35 69 9 3 12 0 8 -10 -4 -10 2 -14 21 -14 14 0 26 5
26 10 0 6 -5 10 -11 10 -5 0 -7 5 -4 10 3 6 13 10 21 10 8 0 12 -4 9 -10 -7
-12 5 -13 21 -2 16 11 24 50 10 55 -6 2 9 8 34 12 25 4 65 15 90 25 33 13 52
15 70 8 13 -5 36 -8 51 -6 14 1 37 -5 50 -13 38 -25 66 -31 76 -17 11 18 11
32 -1 39 -5 4 -6 17 -3 30 8 28 97 73 133 66 14 -2 21 0 18 8 -3 7 6 19 19 28
19 12 27 13 37 4 9 -9 17 -5 34 18 11 17 39 48 61 70 37 37 40 44 33 75 -4 19
-5 41 -2 49 6 20 -17 80 -30 75 -7 -3 -11 10 -10 33 1 39 20 56 30 29 3 -9 10
-14 15 -11 4 3 16 -6 25 -20 18 -27 40 -34 30 -9 -4 9 -2 13 5 8 6 -4 15 0 20
7 6 10 9 5 10 -16 0 -28 1 -29 11 -8 13 27 3 57 -17 49 -8 -3 -15 -1 -15 3 0
5 -3 18 -6 28 -5 14 -4 15 4 4 9 -12 12 -10 17 12 7 27 16 33 29 20 4 -5 13
-8 19 -8 20 0 20 -76 1 -133 -16 -45 -16 -56 -5 -75 14 -22 14 -22 -7 -3 -24
21 -38 13 -59 -35 -11 -26 -11 -26 44 -39 42 -9 65 -22 95 -52 l40 -40 66 11
c37 6 82 12 100 13 17 1 32 6 32 10 0 4 5 8 10 8 6 0 10 -9 10 -21 0 -12 4
-17 11 -13 6 3 8 15 5 27 -3 14 -2 17 6 9 6 -6 11 -25 10 -42 0 -24 4 -31 24
-36 14 -4 27 -4 29 -2 3 3 -8 31 -24 64 -42 86 -86 259 -70 270 5 3 9 -3 9
-13 0 -10 5 -36 11 -58 l12 -40 12 35 c8 23 9 45 3 65 -5 17 -8 46 -6 65 1 20
-1 41 -5 47 -8 13 1 43 13 43 4 0 8 -6 7 -12 -1 -30 4 -48 12 -48 14 0 18 32
7 58 -5 12 -15 22 -22 22 -6 0 -15 7 -18 16 -8 21 -8 24 5 24 5 0 8 -4 5 -9
-3 -5 1 -11 9 -15 8 -3 15 -4 15 -3 0 1 -4 18 -10 37 l-10 35 25 -30 c13 -16
24 -25 25 -19 0 5 -6 16 -12 24 -7 7 1 4 19 -8 33 -23 49 -27 56 -14 2 4 2 1
1 -5 -2 -7 3 -13 11 -13 8 0 15 9 15 20 0 11 -7 20 -15 20 -8 0 -15 5 -15 11
0 7 7 8 18 4 9 -4 28 -8 42 -10 37 -3 40 -4 40 -16 0 -6 -6 -9 -14 -6 -8 3
-22 -1 -33 -8 -17 -14 -17 -14 2 -15 11 -1 38 -10 60 -20 l40 -19 -32 2 c-18
1 -33 4 -33 7 0 3 -14 6 -31 7 -23 2 -28 -1 -21 -10 6 -7 15 -32 22 -56 6 -25
23 -60 37 -78 21 -27 32 -33 62 -32 20 0 30 3 24 6 -10 3 -9 8 3 20 8 9 12 23
9 31 -3 8 0 19 7 24 10 6 8 8 -4 8 -10 0 -18 -7 -18 -15 0 -22 -47 -19 -76 4
-30 23 -17 34 28 26 26 -5 36 -2 45 14 10 15 9 22 -2 31 -19 16 -19 31 0 24 8
-4 15 -4 15 -1 0 9 -82 87 -92 87 -4 0 -8 9 -8 21 0 11 5 17 10 14 6 -4 2 15
-8 42 -10 26 -17 55 -15 64 2 8 -8 27 -21 42 -14 15 -23 34 -20 42 4 8 1 15
-5 15 -6 0 -11 6 -11 13 0 7 -6 19 -12 25 -7 7 -13 20 -13 30 0 12 -7 16 -22
14 -13 -2 -23 2 -23 8 0 7 7 10 15 6 9 -3 15 0 15 8 0 22 31 28 56 11 13 -9
24 -11 24 -5 0 5 -4 10 -9 10 -5 0 -11 9 -14 21 -3 12 -10 18 -15 15 -5 -3
-15 1 -22 9 -7 8 -18 15 -26 15 -7 0 -20 10 -28 21 -12 17 -21 20 -43 14 -37
-9 -51 -22 -68 -63 -11 -26 -12 -39 -4 -55 12 -20 12 -20 40 11 16 18 31 27
35 21 3 -6 -2 -19 -13 -31 -18 -20 -18 -20 2 -18 34 4 46 0 39 -11 -3 -6 -1
-14 5 -18 17 -11 -21 -51 -48 -51 -23 0 -124 -94 -113 -105 4 -4 7 -12 7 -18
0 -7 10 -12 22 -11 27 1 19 -14 -14 -27 -27 -10 -26 -36 2 -31 14 3 16 -1 12
-18 -5 -19 -2 -21 19 -16 21 6 24 3 24 -22 0 -38 -9 -45 -35 -28 -19 13 -22
12 -22 -2 0 -21 25 -52 42 -52 22 0 25 -38 3 -43 -26 -7 -48 2 -48 18 0 16
-27 27 -35 15 -9 -15 -25 -12 -25 5 0 8 -5 15 -11 15 -5 0 -7 6 -4 13 4 6 -3
1 -14 -12 -21 -23 -21 -23 -21 -2 0 12 -4 21 -10 21 -5 0 -10 -4 -10 -9 0 -5
-20 -8 -44 -5 -44 4 -68 -4 -171 -58 -22 -11 -49 -21 -60 -22 -13 -1 -21 -9
-23 -24 -2 -13 -14 -28 -28 -34 -13 -6 -24 -17 -24 -24 0 -7 -6 -14 -12 -17
-10 -3 -10 -11 -2 -35 9 -23 9 -32 0 -35 -7 -3 -4 -12 8 -26 28 -31 13 -36
-36 -13 -72 33 -77 33 -122 7 -24 -14 -46 -22 -50 -18 -4 4 -4 -1 0 -12 6 -15
4 -17 -10 -12 -10 4 -15 3 -11 -3 3 -6 -2 -10 -11 -10 -16 0 -16 -1 2 -14 10
-8 16 -18 11 -22 -4 -4 -13 -2 -19 4 -15 15 -48 16 -48 2 0 -5 5 -10 10 -10 6
0 10 -7 10 -17 0 -15 -1 -15 -18 0 -11 10 -22 13 -32 7 -18 -11 -33 -3 -23 13
4 6 6 23 5 38 -3 35 23 45 43 16 l16 -22 19 25 c21 27 26 60 10 60 -19 0 -10
33 17 58 l27 25 -22 17 c-18 15 -21 25 -16 52 6 31 5 32 -9 14 -14 -19 -14
-19 -13 0 1 10 7 29 13 40 7 12 9 25 5 29 -4 5 0 6 10 2 11 -4 18 1 22 19 4
14 11 22 16 19 9 -6 14 8 8 20 -2 2 7 12 20 20 12 9 22 21 22 27 0 6 8 20 17
31 17 18 17 19 -2 33 -10 8 -25 14 -32 14 -17 0 -16 10 4 32 15 17 15 19 -3
33 -10 8 -27 12 -36 9 -13 -4 -18 0 -18 14 0 28 23 45 40 29 12 -10 12 -9 2 5
-9 11 -10 18 -2 23 23 14 -4 27 -45 20 -26 -3 -46 -2 -49 4 -11 18 18 51 43
51 24 0 24 1 5 14 -10 8 -16 18 -12 21 4 4 21 -7 38 -24 18 -17 36 -28 42 -25
6 4 8 2 5 -3 -4 -6 0 -16 8 -23 8 -7 15 -18 15 -25 0 -18 87 -16 101 1 7 8 21
11 34 8 30 -7 35 3 25 56 -5 25 -7 46 -6 48 2 1 17 -3 35 -9 18 -7 29 -14 24
-18 -15 -9 -33 -70 -27 -86 8 -19 23 -19 44 0 9 8 32 18 51 22 31 6 33 5 20
-10 -7 -10 -9 -17 -3 -17 6 0 17 -3 26 -6 12 -5 16 0 16 20 0 28 28 49 49 37
10 -7 11 -9 1 -13 -10 -3 -10 -12 0 -43 8 -22 13 -52 11 -67 -2 -22 3 -30 24
-38 15 -6 23 -15 20 -21 -5 -7 -15 -3 -29 10 -12 12 -25 19 -28 15 -4 -3 -9 4
-13 15 -7 22 -31 28 -37 10 -3 -9 -10 -9 -27 0 -32 18 -41 3 -11 -19 50 -38
70 -45 82 -30 8 13 9 12 5 -1 -3 -10 4 -26 17 -38 25 -24 36 -26 36 -10 0 7 8
17 17 24 15 11 15 15 -5 42 -21 30 -21 31 -2 36 27 7 26 41 -2 67 -24 22 -20
31 17 36 17 1 30 -4 38 -17 16 -25 37 -25 30 1 -3 11 0 20 6 20 20 0 12 29
-11 41 -13 7 -29 18 -36 26 -7 7 -31 13 -53 13 -21 0 -39 4 -39 9 0 5 -9 11
-20 14 -11 3 -20 2 -20 -1 0 -4 -18 -8 -39 -8 -33 -2 -41 2 -52 25 -7 14 -14
36 -15 48 -5 39 -21 58 -76 86 -43 22 -55 25 -63 14 -7 -9 -19 -11 -35 -6 -24
7 -24 7 -2 8 27 1 30 21 2 21 -10 0 -24 -8 -29 -17 -10 -17 -10 -17 -11 0 0 9
-4 17 -10 17 -16 0 -12 -40 5 -46 8 -4 15 -11 15 -18 -1 -6 -16 6 -35 27 -29
33 -36 37 -54 28 -11 -6 -37 -11 -58 -11 -36 1 -37 2 -19 15 27 20 2 19 -32
-1 -20 -12 -16 -6 12 20 22 20 36 39 33 43 -4 4 -23 -9 -42 -27 -26 -26 -35
-30 -35 -17 0 12 -8 17 -27 17 -28 0 -71 20 -45 20 21 0 13 27 -10 35 -13 4
-26 8 -30 10 -5 1 -20 4 -35 5 l-28 2 30 8 30 7 -28 11 c-16 7 -29 11 -30 11
-1 -1 -19 -5 -40 -9z m183 -158 c0 -4 -7 -18 -16 -30 -18 -26 -13 -27 41 -8
46 16 55 13 55 -18 0 -12 3 -26 8 -32 4 -5 0 -2 -8 7 -19 20 -58 30 -63 16 -1
-5 -21 -11 -43 -11 -21 -1 -45 -5 -51 -9 -31 -19 0 40 35 70 28 24 42 29 42
15z m356 -31 c-3 -5 2 -12 11 -15 9 -4 20 -2 23 5 5 6 9 3 13 -10 7 -28 -13
-39 -29 -16 -8 10 -17 15 -21 12 -4 -4 -1 -13 5 -19 14 -14 16 -32 4 -24 -5 3
-9 -1 -9 -9 0 -8 2 -15 4 -15 9 0 82 40 85 47 3 5 3 2 1 -5 -1 -8 -3 -20 -3
-27 0 -7 -11 -16 -25 -19 -14 -4 -25 -11 -25 -16 0 -5 -7 -7 -15 -4 -9 4 -15
0 -15 -7 -1 -9 -5 -8 -15 5 -10 13 -18 16 -27 9 -19 -14 -63 0 -63 20 0 9 -9
22 -19 30 -17 12 -17 14 -2 20 10 4 16 1 16 -7 0 -20 20 -24 53 -12 16 6 26
17 25 26 -3 18 9 40 23 40 6 0 8 -4 5 -9z m-129 -29 c-13 -14 -14 -21 -5 -30
6 -6 8 -15 4 -19 -4 -4 -11 -2 -15 6 -6 9 -10 6 -14 -10 -4 -13 -5 -24 -4 -24
32 -19 48 -35 37 -35 -22 1 -47 23 -52 45 -4 20 2 31 36 65 25 25 35 26 13 2z
m73 4 c0 -2 -7 -9 -15 -16 -13 -11 -14 -10 -9 4 5 14 24 23 24 12z m-290 -43
c0 -1 -11 -19 -25 -39 -19 -28 -25 -32 -26 -18 0 11 -3 13 -6 7 -7 -18 -20
-16 -27 3 -7 18 11 47 24 39 5 -3 11 -1 15 4 4 8 45 12 45 4z m-130 -55 c16
-29 30 -65 30 -79 0 -53 32 -46 61 15 26 54 56 93 65 83 4 -4 -4 -20 -18 -35
-15 -15 -32 -46 -39 -69 -7 -24 -15 -43 -19 -43 -8 0 -25 -50 -21 -64 1 -5 -5
-6 -13 -3 -8 3 -17 1 -20 -6 -2 -7 -5 0 -5 16 -1 16 -7 27 -15 27 -8 0 -24 16
-37 36 -14 24 -24 32 -29 24 -5 -9 -9 -9 -14 -1 -4 6 -2 11 4 11 7 0 10 7 6
15 -3 8 -1 15 4 15 16 0 11 50 -5 56 -12 5 -11 10 7 30 13 13 24 24 25 24 2 0
16 -24 33 -52z m210 38 c0 -2 -7 -7 -16 -10 -8 -3 -12 -2 -9 4 6 10 25 14 25
6z m-320 -81 c10 -12 9 -16 -5 -21 -17 -7 -38 13 -29 28 8 12 20 10 34 -7z
m557 9 c-3 -3 -12 -4 -19 -1 -8 3 -5 6 6 6 11 1 17 -2 13 -5z m696 -151 c-7
-2 -19 -2 -25 0 -7 3 -2 5 12 5 14 0 19 -2 13 -5z m-1088 -69 c11 -12 14 -26
9 -50 -4 -24 -2 -40 9 -52 19 -22 33 -162 19 -188 -10 -18 -11 -18 -18 1 -4
11 -15 29 -26 41 -15 17 -18 35 -16 115 2 52 0 106 -5 122 -8 31 3 35 28 11z
m-941 -6 c-3 -4 -9 -8 -15 -8 -5 0 -9 4 -9 8 0 5 7 9 15 9 8 0 12 -4 9 -9z
m-549 -38 c3 -5 1 -10 -4 -10 -6 0 -11 5 -11 10 0 6 2 10 4 10 3 0 8 -4 11
-10z m1125 -3 c0 -2 -19 -21 -42 -42 l-41 -40 34 42 c29 36 49 52 49 40z
m1316 -32 c-3 -9 -11 -13 -16 -10 -8 5 -7 11 1 21 14 18 24 11 15 -11z m-1916
-19 c-5 -15 -14 -25 -19 -21 -5 3 -12 1 -16 -5 -8 -12 -35 12 -35 31 0 7 6 4
14 -7 14 -18 15 -18 36 9 26 33 35 30 20 -7z m370 24 c0 -5 -2 -10 -4 -10 -3
0 -8 5 -11 10 -3 6 -1 10 4 10 6 0 11 -4 11 -10z m50 -5 c0 -9 -6 -12 -15 -9
-8 4 -12 10 -9 15 8 14 24 10 24 -6z m458 -11 c-9 -10 -21 -13 -29 -8 -9 5 -8
9 7 15 31 12 39 10 22 -7z m-428 -25 c0 -3 -7 -6 -15 -6 -17 0 -17 0 -9 22 5
13 8 14 15 3 5 -7 9 -16 9 -19z m-226 -10 c-8 -13 -24 -1 -24 18 0 13 3 13 15
3 8 -7 12 -16 9 -21z m-473 -11 c1 -7 1 -16 0 -20 -2 -14 15 -8 39 12 22 19
50 27 50 14 0 -17 -23 -44 -32 -38 -7 4 -8 3 -4 -5 12 -19 -123 -141 -157
-141 -10 0 -16 -3 -14 -7 3 -5 -7 -9 -21 -9 -15 -1 -21 1 -14 3 6 3 12 13 12
24 0 10 14 31 30 46 36 32 32 44 -6 14 -36 -29 -46 -26 -28 7 7 15 22 27 31
28 30 2 63 16 63 26 0 5 9 7 20 3 18 -6 19 -3 14 24 -4 20 -2 31 5 31 6 0 12
-6 12 -12z m-51 -12 c0 -8 -4 -17 -8 -20 -13 -8 -35 11 -28 23 10 16 36 14 36
-3z m1380 -36 c0 -5 -5 -10 -11 -10 -5 0 -7 5 -4 10 3 6 8 10 11 10 2 0 4 -4
4 -10z m-1874 -37 c-8 -8 -36 10 -36 25 0 13 3 12 20 -3 11 -10 18 -20 16 -22z
m1861 -3 c1 -11 -2 -20 -8 -20 -10 0 -12 23 -2 33 9 9 9 10 10 -13z m-431 -90
c16 -19 9 -26 -10 -11 -8 7 -20 10 -26 6 -5 -3 -10 -2 -10 4 0 5 -3 17 -6 26
-6 15 -4 16 17 3 13 -7 29 -20 35 -28z m454 30 c0 -5 -2 -10 -4 -10 -3 0 -8 5
-11 10 -3 6 -1 10 4 10 6 0 11 -4 11 -10z m694 4 c9 -3 13 -10 10 -15 -8 -14
-21 -11 -28 6 -6 17 -4 18 18 9z m-1930 -26 c-2 -3 -13 -6 -24 -5 -24 2 -18
13 9 13 11 0 18 -4 15 -8z m266 2 c0 -5 -7 -10 -16 -10 -8 0 -12 5 -9 10 3 6
10 10 16 10 5 0 9 -4 9 -10z m-800 -30 c0 -5 -2 -10 -4 -10 -3 0 -8 5 -11 10
-3 6 -1 10 4 10 6 0 11 -4 11 -10z m545 0 c-3 -5 -13 -10 -21 -10 -8 0 -14 5
-14 10 0 6 9 10 21 10 11 0 17 -4 14 -10z m1171 -5 c-6 -16 25 -53 39 -48 16
5 15 -65 -1 -71 -8 -3 -14 0 -14 6 0 9 -3 9 -12 0 -7 -7 -16 -12 -22 -12 -6 0
-5 5 2 12 18 18 15 25 -13 30 -19 4 -25 1 -25 -13 0 -11 -7 -19 -15 -19 -9 0
-15 9 -15 25 0 14 5 25 11 25 7 0 9 10 5 26 -8 32 4 49 39 50 18 2 25 -2 21
-11z m-332 -59 c-5 -14 -9 -15 -15 -4 -5 7 -9 22 -9 33 0 17 2 18 15 4 9 -9
13 -23 9 -33z m735 -64 c0 -24 -1 -25 -9 -7 -12 28 -12 47 0 40 6 -3 10 -18 9
-33z m-749 18 c0 -5 -2 -10 -4 -10 -3 0 -8 5 -11 10 -3 6 -1 10 4 10 6 0 11
-4 11 -10z m25 -30 c3 -5 1 -10 -4 -10 -6 0 -11 5 -11 10 0 6 2 10 4 10 3 0 8
-4 11 -10z m170 -20 c-11 -5 -27 -9 -35 -9 -13 -1 -13 0 0 9 8 5 24 9 35 9
l20 0 -20 -9z m-189 -27 c-10 -10 -19 5 -10 18 6 11 8 11 12 0 2 -7 1 -15 -2
-18z m539 3 c0 -19 -3 -22 -14 -13 -10 9 -17 6 -31 -11 -10 -12 -21 -18 -24
-14 -6 10 30 46 54 55 8 3 15 6 15 6 0 1 0 -10 0 -23z m685 9 c0 -8 -2 -15 -4
-15 -2 0 -6 7 -10 15 -3 8 -1 15 4 15 6 0 10 -7 10 -15z m-583 -20 c-8 -20
-27 -20 -27 1 0 8 5 12 10 9 6 -3 10 -1 10 6 0 7 3 10 6 6 4 -3 4 -13 1 -22z
m548 5 c20 0 28 -19 16 -34 -9 -10 -8 -15 5 -20 12 -4 15 -2 11 9 -4 8 -2 17
3 20 14 9 23 -36 10 -49 -10 -8 -14 -8 -17 2 -6 17 -28 15 -43 -3 -9 -10 -9
-15 -1 -15 6 0 11 -5 11 -11 0 -8 -4 -8 -14 1 -8 6 -12 18 -9 26 4 10 0 12
-11 8 -10 -4 -16 -1 -16 9 0 8 -5 17 -12 19 -7 3 -5 9 6 19 9 7 22 19 29 26 7
6 14 7 15 2 2 -5 10 -9 17 -9z m-223 -4 c-3 -5 2 -7 10 -4 9 4 37 9 64 13 l49
6 -35 -20 c-19 -11 -43 -20 -54 -21 -15 0 -16 -3 -6 -15 15 -18 12 -18 -29 -4
-17 6 -31 17 -31 25 0 8 -4 14 -10 14 -5 0 -10 4 -10 9 0 4 13 8 29 7 16 -1
26 -5 23 -10z m-287 -54 c-11 -11 -25 15 -19 33 7 17 8 16 16 -5 5 -13 6 -25
3 -28z m418 33 c-3 -9 -8 -14 -10 -11 -3 3 -2 9 2 15 9 16 15 13 8 -4z m-832
-8 c-6 -8 -8 -17 -4 -20 3 -4 1 -7 -5 -7 -16 0 -15 27 1 33 19 8 20 8 8 -6z
m-671 -2 c0 -2 -9 -9 -20 -15 -22 -12 -44 -5 -35 11 6 9 55 13 55 4z m941 -5
c11 -7 19 -21 19 -37 0 -24 -1 -25 -17 -11 -10 8 -27 18 -38 23 -13 5 -15 9
-7 12 6 3 10 9 6 14 -7 12 13 11 37 -1z m-391 -30 c0 -5 -4 -10 -10 -10 -5 0
-10 5 -10 10 0 6 5 10 10 10 6 0 10 -4 10 -10z m345 -10 c4 -6 11 -8 16 -5 5
4 9 0 9 -7 0 -7 3 -24 7 -37 5 -18 3 -22 -6 -16 -10 5 -11 2 -7 -13 6 -19 5
-19 -29 -8 -34 12 -64 40 -65 61 0 10 35 32 57 34 6 0 15 -4 18 -9z m-392 -41
c-4 -15 0 -19 18 -20 22 0 22 -1 4 -8 -24 -9 -45 9 -45 38 0 13 5 19 14 15 8
-3 12 -13 9 -25z m517 -17 c0 -15 -2 -15 -10 -2 -13 20 -13 33 0 25 6 -3 10
-14 10 -23z m-233 -4 c-3 -8 -6 -5 -6 6 -1 11 2 17 5 13 3 -3 4 -12 1 -19z
m-1601 -40 c4 -7 3 -8 -4 -4 -16 10 -16 -26 0 -42 6 -6 10 -14 7 -16 -8 -8
-69 45 -69 60 0 17 55 19 66 2z m1328 -3 c-4 -8 -10 -12 -15 -9 -11 6 -2 24
11 24 5 0 7 -7 4 -15z m66 -29 c0 -11 -19 -15 -25 -6 -3 5 1 10 9 10 9 0 16
-2 16 -4z m177 -22 c-3 -3 -12 -4 -19 -1 -8 3 -5 6 6 6 11 1 17 -2 13 -5z
m-1337 -26 c0 -2 -17 -19 -37 -38 -37 -35 -37 -24 0 18 17 18 37 29 37 20z
m1397 -65 c-3 -10 -5 -4 -5 12 0 17 2 24 5 18 2 -7 2 -21 0 -30z m-1667 2 c0
-9 -6 -12 -16 -8 -13 5 -13 7 -2 14 17 11 18 11 18 -6z m184 6 c9 -14 -4 -41
-19 -41 -21 0 -28 19 -15 35 14 17 26 19 34 6z m-291 -40 c-3 -11 -14 -22 -26
-25 -17 -4 -18 -7 -7 -21 18 -21 8 -27 -22 -13 l-25 12 39 33 c47 39 48 39 41
14z m1407 -22 c12 -8 10 -9 -7 -4 -12 3 -24 1 -28 -5 -3 -5 -12 -10 -18 -10
-7 0 -3 7 7 15 23 18 26 18 46 4z m-1130 -66 c0 -20 -3 -24 -11 -16 -7 7 -9
19 -6 27 10 24 17 19 17 -11z m-315 -43 c3 -5 1 -10 -4 -10 -6 0 -11 5 -11 10
0 6 2 10 4 10 3 0 8 -4 11 -10z m361 -87 c-3 -4 -11 -2 -17 4 -15 15 -18 47
-5 55 12 8 33 -48 22 -59z m1529 57 c3 -5 -1 -10 -10 -10 -9 0 -13 5 -10 10 3
6 8 10 10 10 2 0 7 -4 10 -10z m-720 -20 c-10 -11 -13 -20 -7 -20 7 0 12 -7
12 -15 0 -8 7 -15 15 -15 9 0 18 -7 21 -15 5 -11 10 -13 19 -5 10 8 13 6 11
-7 -1 -18 15 -21 47 -8 13 5 17 2 17 -14 0 -18 -3 -20 -19 -12 -13 8 -23 6
-37 -5 -18 -14 -18 -15 3 -9 12 3 24 1 28 -5 3 -5 0 -10 -8 -10 -8 0 -26 -10
-41 -21 -29 -23 -40 -21 -30 4 3 9 12 13 21 10 13 -5 13 -3 4 15 -13 24 -31
29 -31 10 0 -7 -16 4 -35 25 -35 38 -47 59 -22 38 18 -14 26 -5 20 20 -5 18
-23 27 -23 12 0 -5 -16 -9 -35 -10 -19 -2 -35 -1 -35 2 0 6 46 26 68 29 7 1
18 8 24 14 20 20 32 13 13 -8z m-434 -17 c12 -14 12 -16 0 -8 -11 6 -13 4 -8
-8 8 -22 4 -21 -18 3 -18 20 -18 21 0 14 13 -5 16 -4 11 4 -11 18 0 14 15 -5z
m114 -70 c-1 -2 -15 3 -32 9 -21 8 -30 18 -30 33 0 19 2 18 31 -10 17 -16 31
-31 31 -32z m1075 48 c0 -17 -12 -41 -21 -41 -7 0 -7 24 0 48 2 7 21 1 21 -7z
m-1150 -17 c0 -2 -7 -4 -15 -4 -8 0 -15 4 -15 10 0 5 7 7 15 4 8 -4 15 -8 15
-10z m-374 -3 c-8 -13 19 -32 36 -26 15 6 23 -2 78 -75 l18 -25 26 24 c33 31
41 23 26 -25 -9 -27 -10 -38 -1 -44 9 -5 7 -11 -5 -20 -9 -8 -20 -25 -25 -38
-12 -30 -33 -23 -39 13 -7 39 -30 45 -31 8 l-1 -28 -14 33 c-15 34 -27 43 -22
16 2 -9 -7 -20 -19 -25 -16 -6 -22 -5 -20 3 1 6 -9 17 -23 25 -23 12 -24 13
-4 13 25 0 46 22 40 41 -3 8 -7 34 -10 58 -3 24 -13 53 -22 63 -16 17 -16 18
0 18 9 0 15 -4 12 -9z m1044 -54 c0 -8 -7 -14 -15 -14 -8 0 -16 6 -19 14 -3 8
2 13 14 13 11 0 20 -6 20 -13z m135 -7 c-3 -5 -10 -10 -16 -10 -5 0 -9 5 -9
10 0 6 7 10 16 10 8 0 12 -4 9 -10z m-574 -13 c-1 -12 -15 -9 -19 4 -3 6 1 10
8 8 6 -3 11 -8 11 -12z m124 3 c-3 -5 -12 -10 -18 -10 -7 0 -6 4 3 10 19 12
23 12 15 0z m433 -18 c3 -9 -2 -13 -14 -10 -9 1 -19 9 -22 16 -3 9 2 13 14 10
9 -1 19 -9 22 -16z m-48 -12 c0 -5 -4 -10 -10 -10 -5 0 -10 5 -10 10 0 6 5 10
10 10 6 0 10 -4 10 -10z m114 -28 c-8 -33 -34 -65 -34 -41 0 8 5 20 12 27 9 9
9 12 0 12 -7 0 -12 5 -12 10 0 6 7 10 16 10 9 0 12 5 8 12 -4 7 -3 8 4 4 7 -4
10 -18 6 -34z m-359 18 c3 -5 1 -10 -4 -10 -6 0 -11 5 -11 10 0 6 2 10 4 10 3
0 8 -4 11 -10z m-900 -43 c-8 -4 -16 -18 -16 -30 -1 -20 -2 -20 -6 -3 -5 19
-6 18 -20 -5 -10 -16 -12 -18 -8 -4 4 11 8 27 9 35 1 20 39 40 48 26 4 -6 1
-14 -7 -19z m865 3 c0 -5 -5 -10 -11 -10 -5 0 -7 5 -4 10 3 6 8 10 11 10 2 0
4 -4 4 -10z m-378 -25 c3 -14 1 -28 -3 -31 -5 -3 -6 -17 -2 -32 6 -25 5 -26
-12 -12 -17 14 -18 13 -11 -10 20 -67 44 -206 37 -213 -5 -5 -12 4 -15 19 -5
20 -10 24 -16 15 -5 -9 -10 0 -15 28 -7 42 -21 54 -27 24 -2 -10 -10 6 -17 36
-9 36 -16 49 -22 40 -12 -19 -11 -72 2 -125 10 -37 9 -48 -4 -62 -26 -30 -24
-55 10 -124 37 -74 59 -93 160 -141 158 -75 174 -86 163 -107 -13 -24 -58 -26
-100 -5 -16 8 -36 12 -44 9 -9 -3 -16 -2 -16 2 0 5 -15 10 -33 11 -19 1 -45
11 -58 22 -13 11 -48 39 -78 62 -29 23 -56 50 -58 60 -3 11 -10 19 -15 19 -6
0 -8 -9 -5 -20 3 -11 1 -20 -4 -20 -5 0 -9 5 -9 12 0 6 -2 9 -5 6 -3 -3 -1
-17 4 -31 13 -34 1 -43 -21 -15 -16 20 -18 21 -12 3 4 -15 3 -17 -4 -6 -7 10
-6 29 4 60 27 87 28 100 7 124 -11 12 -23 33 -25 47 -3 14 -9 33 -12 42 -6 12
-2 18 16 21 17 3 16 4 -5 2 -15 -1 -31 3 -36 9 -11 15 -10 47 2 39 5 -3 7 3 5
13 -2 12 7 27 26 42 46 34 51 26 12 -21 -20 -24 -33 -47 -29 -50 13 -13 61 -7
67 9 9 23 7 36 -4 29 -5 -3 -10 -2 -10 4 0 16 18 22 23 9 4 -10 8 -9 16 2 16
22 14 50 -3 44 -8 -3 -17 -1 -21 5 -3 6 -2 11 4 11 6 0 8 6 5 14 -13 34 70
128 127 144 51 15 56 14 61 -13z m416 13 c5 -7 13 -24 17 -38 l8 -25 -27 28
c-26 28 -33 47 -17 47 5 0 13 -6 19 -12z m-66 -40 c-9 -9 -12 -7 -12 12 0 19
3 21 12 12 9 -9 9 -15 0 -24z m-917 0 c0 -9 4 -20 8 -24 16 -16 5 -23 -25 -17
-42 8 -41 6 -27 37 14 29 44 32 44 4z m1335 2 c0 -5 -2 -10 -4 -10 -3 0 -8 5
-11 10 -3 6 -1 10 4 10 6 0 11 -4 11 -10z m406 -65 c19 -30 18 -33 -23 -41
-26 -5 -32 -2 -38 16 -5 15 -1 26 12 35 25 20 30 19 49 -10z m-636 -15 c0 -5
-7 -7 -15 -4 -8 4 -15 8 -15 10 0 2 7 4 15 4 8 0 15 -4 15 -10z m760 -21 c0
-20 -24 -26 -35 -9 -8 13 14 42 26 34 5 -3 9 -14 9 -25z m-1160 5 c0 -8 -4
-12 -10 -9 -5 3 -10 10 -10 16 0 5 5 9 10 9 6 0 10 -7 10 -16z m436 -19 c3
-14 10 -25 16 -25 5 0 7 -4 3 -9 -3 -6 3 -15 12 -21 15 -9 15 -10 -6 -4 -16 4
-21 3 -17 -5 12 -18 -13 -12 -34 9 -16 16 -18 24 -9 50 13 37 26 39 35 5z
m-111 -33 c-8 -8 -25 10 -19 20 4 6 9 5 15 -3 4 -7 6 -15 4 -17z m854 -33 c7
-13 8 -19 0 -19 -5 0 -7 -5 -4 -10 4 -6 1 -17 -5 -25 -7 -8 -10 -22 -6 -30 3
-8 4 -15 2 -15 -3 0 -11 -3 -20 -6 -12 -4 -16 0 -16 15 0 12 5 21 12 21 6 0 9
3 6 6 -4 3 -16 1 -28 -6 -21 -11 -21 -11 -5 26 17 41 7 64 -27 64 -10 0 -17 4
-14 9 9 14 92 -10 105 -30z m-1805 -16 c-1 -22 -5 -27 -20 -25 -26 5 -26 5 -8
30 20 30 30 28 28 -5z m1873 -9 c14 -31 -3 -42 -37 -24 -21 11 -21 12 -4 31
22 25 27 24 41 -7z m-1117 -35 c0 -19 -5 -29 -14 -29 -19 0 -29 17 -15 25 5 4
8 13 5 20 -2 7 -2 16 1 19 12 11 23 -6 23 -35z m330 32 c0 -5 -7 -11 -15 -15
-15 -5 -20 5 -8 17 9 10 23 9 23 -2z m60 -11 c0 -5 -2 -10 -4 -10 -3 0 -8 5
-11 10 -3 6 -1 10 4 10 6 0 11 -4 11 -10z m-1152 -19 c10 -6 -6 -18 -54 -40
-37 -17 -69 -29 -72 -27 -2 3 14 13 37 22 23 9 46 25 52 35 11 21 18 23 37 10z
m1642 -11 c0 -5 -2 -10 -4 -10 -3 0 -8 5 -11 10 -3 6 -1 10 4 10 6 0 11 -4 11
-10z m-576 -56 c9 -24 4 -25 -24 -4 -24 19 -24 20 -4 20 12 0 25 -7 28 -16z
m-1229 -14 c-11 -5 -33 -9 -50 -9 -26 0 -27 2 -10 9 11 5 34 9 50 9 26 0 27
-2 10 -9z m-85 -16 c0 -2 -13 -4 -30 -4 -16 0 -30 4 -30 8 0 5 14 7 30 4 17
-2 30 -6 30 -8z m1388 -27 c1 -20 -2 -37 -7 -37 -15 0 -19 23 -9 45 7 15 4 14
-13 -5 -12 -14 -19 -18 -15 -10 3 8 9 23 12 33 10 29 28 14 32 -26z m-1273 13
c-3 -5 -11 -10 -16 -10 -6 0 -7 5 -4 10 3 6 11 10 16 10 6 0 7 -4 4 -10z
m2699 -42 c-10 -16 -22 -7 -17 13 4 15 8 17 14 8 4 -7 5 -17 3 -21z m-1257
-19 c1 -14 0 -17 -3 -6 -3 9 -10 17 -15 17 -5 0 -9 5 -9 11 0 22 25 2 27 -22z
m143 21 c0 -5 -4 -10 -10 -10 -5 0 -10 5 -10 10 0 6 5 10 10 10 6 0 10 -4 10
-10z m-350 -4 c0 -3 -4 -8 -10 -11 -5 -3 -10 -1 -10 4 0 6 5 11 10 11 6 0 10
-2 10 -4z m772 -28 c-7 -7 -12 -8 -12 -2 0 14 12 26 19 19 2 -3 -1 -11 -7 -17z
m566 15 c-10 -2 -18 -9 -18 -14 0 -5 -10 -9 -22 -9 -22 1 -23 1 -4 15 11 8 29
14 40 14 17 -1 18 -2 4 -6z m-623 -42 c-8 -39 -24 -50 -18 -13 7 40 13 56 19
49 3 -3 3 -19 -1 -36z m-165 4 c-1 -11 -10 -31 -21 -44 -19 -23 -21 -24 -37
-7 -16 17 -16 18 3 12 18 -5 20 -2 19 28 -2 28 2 34 17 33 12 -1 19 -9 19 -22z
m-136 -30 c-7 -16 -24 -21 -24 -6 0 8 7 13 27 20 1 1 0 -6 -3 -14z m72 -34
l24 -19 -25 -6 c-32 -8 -45 -1 -45 25 0 24 15 24 46 0z m649 -41 c29 -8 29 -8
-10 -9 -22 -1 -35 -5 -28 -9 6 -4 -45 -7 -113 -7 -106 0 -124 2 -124 16 0 9 3
18 6 22 8 8 230 -3 269 -13z m-650 -30 c3 -5 2 -10 -4 -10 -5 0 -13 5 -16 10
-3 6 -2 10 4 10 5 0 13 -4 16 -10z m-1401 -27 c4 -10 4 -14 0 -10 -4 4 -13 2
-21 -4 -10 -9 -13 -8 -13 3 0 30 24 38 34 11z m191 7 c3 -5 1 -10 -4 -10 -6 0
-11 5 -11 10 0 6 2 10 4 10 3 0 8 -4 11 -10z m565 0 c0 -5 -4 -10 -10 -10 -5
0 -10 5 -10 10 0 6 5 10 10 10 6 0 10 -4 10 -10z m44 -78 c4 -7 5 -12 2 -12
-12 0 -36 61 -29 73 4 7 10 0 14 -19 3 -17 9 -36 13 -42z m-614 42 c0 -8 -5
-12 -10 -9 -6 4 -8 11 -5 16 9 14 15 11 15 -7z m44 -25 c-4 -6 -11 -6 -20 2
-21 17 -17 31 6 19 11 -6 18 -15 14 -21z m772 -7 c-4 -3 -14 2 -24 12 -16 18
-16 18 6 6 13 -6 21 -14 18 -18z m-141 -65 c13 -28 14 -37 3 -59 -17 -31 -38
-25 -38 12 0 16 -4 40 -10 54 -8 22 -7 26 10 26 12 0 25 -13 35 -33z m-122
-32 c2 -14 0 -22 -4 -19 -5 3 -9 0 -9 -7 0 -8 -4 -8 -15 1 -15 13 -20 42 -9
53 11 11 32 -5 37 -28z m-278 16 c17 -7 17 -8 -8 -13 -19 -4 -27 -1 -27 8 0
15 6 16 35 5z m482 -103 c-3 -8 -6 -5 -6 6 -1 11 2 17 5 13 3 -3 4 -12 1 -19z
m328 -8 c3 -5 2 -10 -4 -10 -5 0 -13 5 -16 10 -3 6 -2 10 4 10 5 0 13 -4 16
-10z m-435 -166 c0 -17 -12 -18 -27 -3 -17 17 -5 43 13 28 8 -6 14 -18 14 -25z"/>
<path d="M3279 2601 c15 -27 31 -36 31 -17 0 8 -9 20 -21 26 -19 11 -20 10
-10 -9z"/>
<path d="M1160 1995 c0 -5 5 -17 10 -25 5 -8 10 -10 10 -5 0 6 -5 17 -10 25
-5 8 -10 11 -10 5z"/>
<path d="M1434 1647 c-8 -18 -8 -24 3 -24 7 0 13 11 13 24 0 29 -2 29 -16 0z"/>
<path d="M1375 1481 c-3 -5 1 -16 9 -24 8 -8 13 -17 10 -20 -3 -3 1 -18 9 -33
l15 -28 0 27 c0 15 -4 27 -9 27 -5 0 -8 3 -8 8 6 39 -10 67 -26 43z"/>
<path d="M1567 1229 c7 -7 15 -10 18 -7 3 3 -2 9 -12 12 -14 6 -15 5 -6 -5z"/>
<path d="M1585 1200 c-3 -6 1 -7 9 -4 18 7 21 14 7 14 -6 0 -13 -4 -16 -10z"/>
<path d="M1721 1171 c-9 -6 -2 -10 23 -13 20 -2 36 0 36 4 0 4 -4 8 -9 8 -5 0
-15 2 -23 5 -7 3 -19 1 -27 -4z"/>
<path d="M2725 1770 c-3 -5 -1 -10 4 -10 6 0 11 5 11 10 0 6 -2 10 -4 10 -3 0
-8 -4 -11 -10z"/>
<path d="M3237 3642 c-44 -46 -30 -78 18 -40 22 17 29 19 36 7 5 -8 9 -19 9
-25 0 -6 6 -17 14 -23 10 -9 19 -6 37 10 13 11 17 19 9 16 -9 -2 -24 7 -34 22
-20 26 -20 26 0 9 39 -34 44 -18 5 17 -47 42 -59 43 -94 7z"/>
<path d="M2500 3639 c0 -18 2 -19 15 -9 8 7 15 16 15 21 0 5 -7 9 -15 9 -9 0
-15 -9 -15 -21z"/>
<path d="M3150 3610 c8 -5 20 -10 25 -10 6 0 3 5 -5 10 -8 5 -19 10 -25 10 -5
0 -3 -5 5 -10z"/>
<path d="M3055 3600 c-8 -13 -1 -24 14 -19 6 3 7 10 2 18 -6 10 -10 10 -16 1z"/>
<path d="M3582 3587 c-43 -46 -20 -85 34 -59 39 18 44 31 12 33 -17 1 -19 2
-6 6 14 4 16 8 8 24 -14 25 -22 24 -48 -4z"/>
<path d="M1057 3566 c-3 -8 1 -17 9 -20 9 -3 13 -10 9 -15 -9 -16 15 -24 31
-11 12 11 11 16 -11 36 -30 28 -31 28 -38 10z"/>
<path d="M1090 3570 c0 -5 5 -10 11 -10 5 0 7 5 4 10 -3 6 -8 10 -11 10 -2 0
-4 -4 -4 -10z"/>
<path d="M3001 3567 c-14 -17 17 -80 36 -73 8 3 12 2 9 -3 -7 -10 17 -21 44
-21 12 0 17 6 15 18 -2 9 -4 20 -4 25 -1 4 -10 7 -22 7 -15 0 -19 5 -14 19 4
14 -1 21 -24 29 -22 8 -32 7 -40 -1z"/>
<path d="M3146 3562 c-4 -7 -13 -11 -20 -9 -7 3 -10 -9 -7 -37 3 -34 10 -47
43 -73 44 -36 92 -44 102 -17 9 23 8 24 -14 24 -30 0 -36 27 -18 77 9 24 12
43 7 43 -5 0 -9 -6 -9 -13 0 -7 -9 -18 -21 -25 -14 -9 -19 -10 -14 -2 5 9 1
10 -13 6 -16 -5 -21 -2 -24 16 -2 17 -5 19 -12 10z"/>
<path d="M1205 3550 c3 -5 8 -10 11 -10 2 0 4 5 4 10 0 6 -5 10 -11 10 -5 0
-7 -4 -4 -10z"/>
<path d="M3260 3550 c0 -5 5 -10 10 -10 6 0 10 5 10 10 0 6 -4 10 -10 10 -5 0
-10 -4 -10 -10z"/>
<path d="M3290 3529 c0 -11 5 -17 10 -14 6 3 10 13 10 21 0 8 -4 14 -10 14 -5
0 -10 -9 -10 -21z"/>
<path d="M1165 3530 c-8 -13 5 -13 25 0 13 8 13 10 -2 10 -9 0 -20 -4 -23 -10z"/>
<path d="M1250 3506 c0 -9 5 -16 10 -16 6 0 10 4 10 9 0 6 -4 13 -10 16 -5 3
-10 -1 -10 -9z"/>
<path d="M3525 3510 c-3 -6 1 -7 9 -4 18 7 21 14 7 14 -6 0 -13 -4 -16 -10z"/>
<path d="M3440 3507 c0 -2 18 -20 40 -41 22 -21 40 -33 40 -28 0 12 -60 72
-72 72 -4 0 -8 -1 -8 -3z"/>
<path d="M1050 3473 c0 -5 4 -14 9 -22 7 -11 11 -9 20 8 10 18 9 21 -9 21 -11
0 -20 -3 -20 -7z"/>
<path d="M1170 3471 c0 -22 13 -39 26 -34 10 4 12 0 8 -11 -3 -9 -1 -16 4 -16
6 0 12 10 14 23 3 21 4 21 24 -8 12 -16 24 -51 27 -77 6 -46 6 -48 -19 -48
-21 0 -24 4 -19 20 4 11 3 20 -2 19 -27 -5 -35 1 -23 16 7 8 16 13 20 10 5 -3
11 -1 15 5 10 16 -41 12 -55 -5 -7 -8 -16 -12 -21 -9 -5 3 -12 -2 -16 -12 -6
-16 -7 -16 -19 1 -12 17 -15 17 -39 1 -14 -9 -25 -24 -25 -34 -1 -13 -6 -11
-23 10 -21 26 -23 26 -34 10 -7 -13 -8 -24 -1 -36 9 -16 7 -17 -20 -11 -18 3
-33 2 -37 -5 -10 -15 18 -71 32 -65 8 2 13 -4 13 -17 0 -20 1 -20 18 -5 10 10
23 17 29 17 15 0 54 46 46 55 -5 4 2 2 14 -4 36 -19 113 -21 113 -4 0 8 -9 17
-20 20 -11 3 -20 12 -20 19 0 15 16 19 22 6 2 -5 17 -12 35 -15 39 -8 65 21
57 63 -4 17 0 31 10 40 15 12 16 10 7 -14 -6 -14 -7 -26 -2 -26 5 0 11 7 15
15 3 8 10 15 16 15 7 0 8 -6 2 -17 -5 -10 -7 -23 -5 -29 2 -6 -5 -14 -17 -17
-39 -10 -23 -35 28 -42 26 -3 72 -14 102 -23 l55 -17 48 58 c30 36 42 57 33
57 -9 0 -21 10 -27 22 -12 22 -12 22 -20 3 -10 -27 -11 -37 -1 -31 5 3 6 -9 3
-27 l-6 -32 -3 28 c-3 23 -6 26 -18 16 -8 -6 -16 -10 -19 -8 -4 5 -13 53 -14
80 -1 16 -30 21 -41 8 -3 -4 -14 -3 -25 2 -11 4 -14 8 -7 8 19 1 14 18 -8 24
-11 3 -20 2 -20 -2 0 -4 -12 -13 -27 -20 -21 -10 -29 -9 -40 2 -12 12 -9 13
19 10 l33 -3 -30 10 c-25 8 -33 7 -46 -9 -15 -18 -16 -18 -36 5 -12 14 -33 24
-48 24 -15 0 -24 4 -20 10 3 6 1 10 -4 10 -6 0 -11 -4 -11 -9z m266 -137 c10
-8 13 -13 6 -9 -7 4 -25 -1 -40 -11 -26 -17 -26 -17 -13 0 13 15 13 19 0 27
-11 7 -10 9 7 9 11 0 29 -7 40 -16z m-446 -64 c0 -5 -2 -10 -4 -10 -3 0 -8 5
-11 10 -3 6 -1 10 4 10 6 0 11 -4 11 -10z"/>
<path d="M1256 3465 c4 -8 13 -15 21 -15 12 0 12 2 -1 15 -8 8 -17 15 -20 15
-3 0 -3 -7 0 -15z"/>
<path d="M2200 3459 c0 -5 5 -7 10 -4 6 3 10 8 10 11 0 2 -4 4 -10 4 -5 0 -10
-5 -10 -11z"/>
<path d="M3275 3420 c-4 -6 5 -10 20 -10 15 0 24 4 20 10 -3 6 -12 10 -20 10
-8 0 -17 -4 -20 -10z"/>
<path d="M1585 3365 c21 -17 37 -15 43 3 2 8 -8 12 -30 12 -31 -1 -32 -1 -13
-15z"/>
<path d="M1800 3376 c0 -2 29 -14 65 -26 57 -19 67 -20 85 -7 20 14 19 15 -24
26 -43 11 -126 15 -126 7z"/>
<path d="M1713 3333 c9 -2 23 -2 30 0 6 3 -1 5 -18 5 -16 0 -22 -2 -12 -5z"/>
<path d="M1720 3265 c-7 -9 -11 -18 -8 -20 3 -3 11 1 18 10 7 9 11 18 8 20 -3
3 -11 -1 -18 -10z"/>
<path d="M3240 3229 c0 -5 5 -7 10 -4 6 3 10 8 10 11 0 2 -4 4 -10 4 -5 0 -10
-5 -10 -11z"/>
<path d="M717 3203 c8 -49 25 -75 47 -69 10 3 28 1 38 -5 13 -7 18 -6 18 3 0
8 9 21 20 31 11 9 20 24 20 33 0 14 -7 16 -42 11 -28 -4 -52 -1 -68 8 -35 20
-38 19 -33 -12z"/>
<path d="M2040 3196 c0 -9 30 -14 35 -6 4 6 -3 10 -14 10 -12 0 -21 -2 -21 -4z"/>
<path d="M2917 3170 c-9 -11 -23 -17 -32 -14 -19 8 -19 -7 0 -53 19 -44 19
-64 0 -39 -14 18 -14 18 -14 0 0 -11 -2 -49 -4 -87 -5 -69 -1 -82 22 -68 10 7
11 13 1 30 -11 22 -11 22 14 6 16 -11 33 -14 43 -10 12 5 14 9 6 12 -7 3 -13
14 -13 25 0 15 -5 18 -22 13 -16 -4 -19 -4 -9 3 20 14 22 76 5 118 -8 20 -13
38 -11 41 6 5 34 -23 39 -39 3 -8 11 -5 24 8 19 19 19 19 -6 46 -25 28 -26 28
-43 8z"/>
<path d="M2778 3103 c-13 -15 -14 -20 -3 -30 10 -9 14 -6 18 15 7 34 4 36 -15
15z"/>
<path d="M2092 3101 c2 -7 7 -12 11 -12 12 1 9 15 -3 20 -7 2 -11 -2 -8 -8z"/>
<path d="M3146 3093 c-6 -14 -5 -15 5 -6 7 7 10 15 7 18 -3 3 -9 -2 -12 -12z"/>
<path d="M2727 3048 c-4 -13 -1 -26 6 -30 8 -5 8 -11 2 -15 -14 -11 -32 -51
-44 -97 -11 -40 -8 -56 10 -56 21 0 37 28 56 97 18 66 18 73 4 97 -19 32 -27
33 -34 4z"/>
<path d="M2980 3051 c0 -11 9 -25 20 -31 16 -9 20 -8 20 5 0 8 -4 15 -10 15
-5 0 -9 5 -7 11 1 6 -4 14 -10 16 -8 3 -13 -4 -13 -16z"/>
<path d="M3260 3046 c0 -2 7 -6 15 -10 8 -3 15 -1 15 4 0 6 -7 10 -15 10 -8 0
-15 -2 -15 -4z"/>
<path d="M3795 3031 c3 -5 0 -11 -7 -13 -8 -3 -9 -6 -1 -11 6 -4 16 -1 22 7 9
10 8 15 -4 20 -9 3 -14 2 -10 -3z"/>
<path d="M607 3019 c7 -7 15 -10 18 -7 3 3 -2 9 -12 12 -14 6 -15 5 -6 -5z"/>
<path d="M1800 2999 c0 -5 5 -7 10 -4 6 3 10 8 10 11 0 2 -4 4 -10 4 -5 0 -10
-5 -10 -11z"/>
<path d="M770 2910 c-9 -6 -10 -10 -3 -10 6 0 15 5 18 10 8 12 4 12 -15 0z"/>
<path d="M3705 2880 c3 -5 8 -10 11 -10 2 0 4 5 4 10 0 6 -5 10 -11 10 -5 0
-7 -4 -4 -10z"/>
<path d="M2780 2825 c-7 -8 -18 -15 -25 -15 -8 0 -15 -5 -17 -12 -2 -6 -14
-13 -26 -14 -15 -3 -20 0 -16 11 3 8 3 19 -1 26 -9 14 -25 -7 -25 -35 0 -10
-8 -25 -17 -32 -17 -12 -16 -13 4 -14 12 0 27 8 32 18 6 9 11 11 11 5 0 -23
27 -14 72 23 23 20 45 40 46 45 6 15 -25 10 -38 -6z"/>
<path d="M2225 2800 c28 -12 45 -12 45 0 0 6 -15 10 -32 9 -28 0 -30 -2 -13
-9z"/>
<path d="M2335 2800 c-3 -5 -1 -10 4 -10 6 0 11 5 11 10 0 6 -2 10 -4 10 -3 0
-8 -4 -11 -10z"/>
<path d="M1505 2786 c22 -7 42 -12 44 -10 9 8 -8 15 -45 19 l-39 5 40 -14z"/>
<path d="M3495 2760 c3 -5 8 -10 11 -10 2 0 4 5 4 10 0 6 -5 10 -11 10 -5 0
-7 -4 -4 -10z"/>
<path d="M3529 2747 c-8 -7 -24 -24 -33 -39 -10 -16 -23 -28 -28 -28 -6 0 -5
7 2 15 9 11 10 19 3 26 -8 8 -13 5 -18 -10 -8 -25 3 -64 16 -56 5 4 9 -12 9
-34 0 -30 6 -44 22 -55 19 -14 24 -13 51 2 16 9 32 23 35 30 3 10 7 11 12 2
10 -16 50 -3 50 16 0 8 -5 14 -10 14 -6 0 -8 16 -5 39 5 43 -4 55 -50 67 -17
4 -32 11 -35 15 -3 4 -12 2 -21 -4z m1 -133 c0 -8 -7 -14 -15 -14 -8 0 -15 9
-15 20 0 13 5 18 15 14 8 -4 15 -12 15 -20z m10 -34 c0 -5 -7 -10 -16 -10 -8
0 -12 5 -9 10 3 6 10 10 16 10 5 0 9 -4 9 -10z"/>
<path d="M1256 2741 c-13 -20 27 -76 46 -65 5 3 8 0 8 -6 0 -7 16 -30 35 -53
19 -22 35 -48 35 -56 0 -14 -2 -14 -10 -1 -5 8 -12 11 -17 7 -4 -5 -1 -12 7
-18 11 -7 24 1 54 33 21 24 35 37 32 31 -5 -9 0 -12 16 -10 24 2 47 30 48 58
0 22 -25 70 -33 63 -3 -3 -33 -6 -66 -5 -42 0 -61 -3 -61 -12 -1 -8 -5 -6 -13
4 -23 31 -70 48 -81 30z m104 -61 c0 -5 -5 -10 -11 -10 -5 0 -7 5 -4 10 3 6 8
10 11 10 2 0 4 -4 4 -10z"/>
<path d="M1525 2740 c4 -6 11 -8 16 -5 14 9 11 15 -7 15 -8 0 -12 -5 -9 -10z"/>
<path d="M3643 2737 c4 -14 26 -16 30 -3 1 5 -6 10 -16 12 -10 1 -16 -3 -14
-9z"/>
<path d="M3915 2722 c3 -8 5 -18 5 -23 0 -5 18 0 40 11 23 11 46 18 52 14 7
-4 8 -3 4 4 -11 18 -108 12 -101 -6z"/>
<path d="M4003 2703 c-13 -2 -23 -8 -23 -13 0 -4 -12 -11 -26 -14 -24 -6 -25
-9 -18 -54 5 -36 15 -55 43 -80 l36 -34 -35 28 -35 27 -6 -29 c-4 -16 -7 -43
-8 -60 -1 -37 -52 -135 -99 -190 -27 -33 -31 -35 -21 -11 7 15 15 27 19 27 4
0 23 30 42 68 24 46 37 87 42 132 l7 65 -19 -35 c-10 -19 -22 -47 -26 -62 -7
-32 -26 -38 -26 -8 0 11 -7 20 -15 20 -9 0 -15 -9 -15 -21 0 -15 -4 -19 -16
-15 -13 5 -15 2 -11 -15 3 -12 1 -31 -5 -42 -7 -14 -7 -22 2 -27 8 -5 4 -14
-14 -28 -14 -11 -26 -27 -26 -36 0 -9 -4 -16 -10 -16 -5 0 -10 9 -10 20 0 11
-4 20 -10 20 -5 0 -8 -13 -7 -30 1 -16 6 -30 10 -30 5 0 5 -4 2 -10 -12 -19
-43 -10 -89 25 l-46 34 -45 -19 c-25 -11 -44 -16 -41 -11 3 5 19 14 35 21 39
16 45 43 15 69 -54 47 -118 7 -112 -70 2 -33 7 -43 18 -40 8 2 31 3 50 2 19
-1 50 3 67 8 30 9 33 8 31 -13 -3 -29 38 -86 61 -86 23 0 33 -11 22 -24 -6 -7
-4 -18 5 -30 8 -11 14 -15 14 -8 0 6 7 9 15 6 9 -4 15 0 15 7 0 8 15 24 32 36
30 21 33 21 50 6 10 -9 18 -23 18 -32 1 -38 15 -43 54 -20 33 19 37 26 32 51
-5 25 -1 31 27 44 19 9 39 29 47 47 7 18 28 47 47 65 18 18 33 37 33 42 0 6 6
10 14 10 24 0 47 30 40 52 -5 18 -3 20 19 14 22 -5 31 1 63 40 31 37 35 47 23
55 -11 7 -10 9 5 9 13 0 17 5 13 20 -3 10 0 18 5 17 29 -6 13 24 -29 56 -26
20 -55 43 -63 51 -16 15 -128 28 -167 19z m50 -55 c18 -18 21 -23 7 -11 -14
12 -36 26 -50 32 -18 7 -20 10 -7 10 9 1 32 -14 50 -31z m116 -150 c11 -29 -7
-41 -45 -32 l-26 7 24 23 c29 29 37 29 47 2z m-329 -88 c0 -5 -7 -10 -16 -10
-8 0 -12 5 -9 10 3 6 10 10 16 10 5 0 9 -4 9 -10z m274 -15 c-4 -8 -11 -12
-16 -9 -6 4 -5 10 3 15 19 12 19 11 13 -6z"/>
<path d="M2619 2683 c-13 -16 -12 -17 4 -4 16 13 21 21 13 21 -2 0 -10 -8 -17
-17z"/>
<path d="M4290 2609 c0 -5 5 -7 10 -4 6 3 10 8 10 11 0 2 -4 4 -10 4 -5 0 -10
-5 -10 -11z"/>
<path d="M1897 2590 c-9 -11 -13 -20 -8 -20 11 0 35 29 29 35 -2 2 -12 -4 -21
-15z"/>
<path d="M3606 2543 c-11 -14 -20 -39 -21 -54 l-2 -28 26 18 c49 35 65 59 51
76 -18 21 -32 18 -54 -12z"/>
<path d="M830 2540 c0 -5 7 -10 15 -10 8 0 15 5 15 10 0 6 -7 10 -15 10 -8 0
-15 -4 -15 -10z"/>
<path d="M1506 2531 c-3 -5 4 -11 16 -14 30 -8 35 -1 9 12 -11 6 -22 7 -25 2z"/>
<path d="M3540 2529 c0 -7 -10 -9 -24 -7 -17 4 -23 1 -19 -9 3 -7 16 -13 29
-13 17 0 24 6 24 20 0 11 -2 20 -5 20 -3 0 -5 -5 -5 -11z"/>
<path d="M3218 2483 c6 -2 18 -2 25 0 6 3 1 5 -13 5 -14 0 -19 -2 -12 -5z"/>
<path d="M3060 2470 c-12 -8 -11 -10 7 -10 12 0 25 5 28 10 8 13 -15 13 -35 0z"/>
<path d="M2828 2449 c7 -8 16 -15 20 -15 30 -6 52 -19 52 -30 0 -8 3 -13 8
-13 23 4 32 -4 32 -27 0 -14 4 -23 9 -20 5 3 7 16 4 29 -4 18 -3 19 6 7 6 -8
11 -11 11 -5 0 5 5 4 12 -3 7 -7 18 -12 26 -12 8 0 20 -7 26 -15 6 -8 26 -19
45 -25 l34 -9 -24 25 c-12 13 -28 23 -35 20 -7 -3 -14 3 -17 13 -7 29 -82 62
-197 88 -21 5 -23 3 -12 -8z"/>
<path d="M3660 2440 c0 -5 4 -10 9 -10 6 0 13 5 16 10 3 6 -1 10 -9 10 -9 0
-16 -4 -16 -10z"/>
<path d="M2783 2393 c9 -9 19 -14 23 -11 10 10 -6 28 -24 28 -15 0 -15 -1 1
-17z"/>
<path d="M3350 2400 c0 -5 5 -10 11 -10 5 0 7 5 4 10 -3 6 -8 10 -11 10 -2 0
-4 -4 -4 -10z"/>
<path d="M2840 2375 c0 -8 5 -15 10 -15 6 0 10 7 10 15 0 8 -4 15 -10 15 -5 0
-10 -7 -10 -15z"/>
<path d="M3290 2375 c-9 -11 -9 -15 -1 -15 7 0 9 -5 5 -12 -4 -7 -3 -10 1 -5
8 6 16 47 10 47 -2 0 -8 -7 -15 -15z"/>
<path d="M800 2360 c8 -5 20 -10 25 -10 6 0 3 5 -5 10 -8 5 -19 10 -25 10 -5
0 -3 -5 5 -10z"/>
<path d="M776 2341 c5 -5 20 -12 34 -15 24 -7 24 -6 6 8 -21 17 -57 23 -40 7z"/>
<path d="M3690 2334 c0 -8 5 -12 10 -9 6 4 8 11 5 16 -9 14 -15 11 -15 -7z"/>
<path d="M3136 2303 c-3 -6 0 -10 7 -7 7 2 38 -20 70 -50 63 -58 102 -80 120
-69 7 4 6 -1 -2 -10 -9 -12 -10 -17 -2 -17 7 0 10 -4 6 -10 -3 -5 4 -19 16
-31 16 -16 21 -17 16 -6 -3 9 0 23 8 31 17 17 20 36 4 36 -5 0 -8 4 -4 9 3 5
1 12 -4 15 -5 4 -11 1 -14 -6 -2 -7 -2 -3 -1 9 2 12 0 32 -5 45 -8 20 -10 20
-10 4 -1 -19 -2 -19 -23 0 -26 23 -84 32 -72 11 5 -9 4 -9 -5 -1 -10 9 -10 17
-2 32 14 26 -2 38 -22 17 -20 -19 -37 -19 -37 -1 0 18 -37 17 -44 -1z"/>
<path d="M3060 2301 c0 -5 7 -11 15 -15 8 -3 15 -1 15 3 0 5 -7 11 -15 15 -8
3 -15 1 -15 -3z"/>
<path d="M2289 2258 c-1 -2 -3 -16 -5 -32 -2 -16 -9 -33 -16 -37 -10 -7 -10
-9 2 -10 8 -1 18 -1 22 0 4 0 11 -17 14 -39 7 -42 12 -47 32 -30 8 7 9 7 3 -1
-6 -7 -5 -21 1 -35 15 -33 29 -30 22 5 -3 16 -1 31 4 35 6 4 8 -2 5 -15 -5
-18 -2 -19 22 -13 18 4 26 3 22 -3 -4 -6 2 -18 13 -28 11 -10 17 -22 14 -26
-3 -5 2 -9 11 -9 17 0 39 -46 29 -62 -4 -7 -2 -8 5 -4 6 4 18 3 25 -3 11 -9
12 -6 8 16 -4 23 -2 25 14 19 15 -6 17 -5 7 5 -15 15 -17 33 -4 24 19 -11 -21
55 -50 84 -16 16 -29 35 -29 41 0 7 -7 10 -15 6 -9 -3 -20 2 -27 13 -6 11 -17
17 -23 14 -11 -4 -40 30 -44 52 -3 15 -57 43 -62 33z m161 -148 c0 -5 -4 -10
-10 -10 -5 0 -10 5 -10 10 0 6 5 10 10 10 6 0 10 -4 10 -10z m70 -60 c0 -13
-28 -25 -38 -16 -3 4 0 11 8 16 20 13 30 12 30 0z"/>
<path d="M3045 2250 c-3 -5 -1 -10 4 -10 6 0 11 5 11 10 0 6 -2 10 -4 10 -3 0
-8 -4 -11 -10z"/>
<path d="M4016 2195 c4 -8 8 -15 10 -15 2 0 4 7 4 15 0 8 -4 15 -10 15 -5 0
-7 -7 -4 -15z"/>
<path d="M801 2196 c2 -2 15 -9 29 -16 23 -12 24 -12 11 3 -7 10 -20 17 -29
17 -8 0 -13 -2 -11 -4z"/>
<path d="M2430 2180 c0 -5 7 -10 16 -10 8 0 12 5 9 10 -3 6 -10 10 -16 10 -5
0 -9 -4 -9 -10z"/>
<path d="M2088 2173 c6 -2 18 -2 25 0 6 3 1 5 -13 5 -14 0 -19 -2 -12 -5z"/>
<path d="M3789 2105 c-2 -16 -4 -48 -6 -70 -2 -22 -5 -60 -7 -85 -6 -64 0 -77
42 -90 20 -7 43 -19 50 -28 11 -14 12 -14 12 4 0 10 -11 28 -25 38 -32 24 -52
112 -36 158 6 18 7 34 3 37 -5 3 -14 20 -20 36 l-10 30 -3 -30z"/>
<path d="M2197 2113 c-12 -12 -7 -22 8 -17 8 4 15 10 15 15 0 11 -14 12 -23 2z"/>
<path d="M827 2079 c-4 -16 -3 -18 9 -8 7 6 11 15 8 20 -8 13 -11 11 -17 -12z"/>
<path d="M2980 2084 c0 -2 9 -8 20 -14 11 -6 20 -7 20 -2 0 6 -9 12 -20 15
-11 3 -20 3 -20 1z"/>
<path d="M3740 2086 c0 -2 7 -7 16 -10 8 -3 12 -2 9 4 -6 10 -25 14 -25 6z"/>
<path d="M3350 2075 c0 -12 40 -48 47 -42 3 4 -3 16 -15 27 -21 20 -32 25 -32
15z"/>
<path d="M2310 2050 c0 -6 7 -10 15 -10 8 0 15 2 15 4 0 2 -7 6 -15 10 -8 3
-15 1 -15 -4z"/>
<path d="M2380 2043 c0 -26 16 -48 24 -34 4 6 2 11 -4 11 -6 0 -8 5 -5 11 4 6
14 8 22 4 13 -4 14 -3 3 10 -17 20 -40 19 -40 -2z"/>
<path d="M2086 2038 c3 -5 10 -6 15 -3 13 9 11 12 -6 12 -8 0 -12 -4 -9 -9z"/>
<path d="M3236 2041 c-5 -7 -3 -18 3 -24 14 -14 20 -6 11 17 -5 15 -9 16 -14
7z"/>
<path d="M2575 2020 c3 -5 8 -10 11 -10 2 0 4 5 4 10 0 6 -5 10 -11 10 -5 0
-7 -4 -4 -10z"/>
<path d="M2726 1965 c-3 -8 -1 -15 4 -15 6 0 10 7 10 15 0 8 -2 15 -4 15 -2 0
-6 -7 -10 -15z"/>
<path d="M936 1961 c-6 -9 35 -24 43 -15 6 5 -18 24 -31 24 -4 0 -9 -4 -12 -9z"/>
<path d="M2770 1946 c0 -10 9 -16 25 -16 14 0 25 5 25 10 0 6 -4 10 -9 10 -5
0 -16 3 -25 6 -11 4 -16 1 -16 -10z"/>
<path d="M3220 1881 c0 -5 5 -13 10 -16 6 -3 10 -2 10 4 0 5 -4 13 -10 16 -5
3 -10 2 -10 -4z"/>
<path d="M3263 1879 c9 -5 17 -15 17 -22 0 -17 37 -39 45 -27 4 6 -2 13 -12
17 -10 4 -24 15 -31 25 -7 10 -19 18 -25 18 -7 0 -4 -5 6 -11z"/>
<path d="M3336 1866 c3 -8 12 -12 20 -9 17 6 9 23 -11 23 -8 0 -12 -6 -9 -14z"/>
<path d="M3630 1855 c0 -8 29 -38 65 -67 62 -50 65 -55 60 -87 -4 -18 -1 -47
6 -63 11 -27 16 -29 51 -26 21 2 38 0 38 -4 0 -5 -4 -8 -9 -8 -5 0 -11 -14
-13 -31 -4 -24 0 -32 16 -39 13 -5 27 -3 35 4 11 8 13 8 7 -1 -14 -24 23 -14
39 11 13 20 26 24 96 29 129 10 146 33 29 40 -47 3 -57 7 -67 28 -7 13 -20 24
-30 24 -11 1 -16 7 -14 15 14 54 13 57 -18 68 -25 9 -37 8 -64 -6 -17 -9 -33
-20 -35 -24 -2 -5 -13 -8 -25 -8 -14 0 -18 3 -10 8 6 4 11 16 10 27 -1 13 7
21 31 28 33 10 42 25 20 31 -7 2 -48 11 -90 20 -42 10 -82 24 -89 32 -15 18
-39 18 -39 -1z m130 -59 c0 -3 -4 -8 -10 -11 -5 -3 -10 -1 -10 4 0 6 5 11 10
11 6 0 10 -2 10 -4z m160 -215 c-14 -27 -30 -36 -30 -17 0 8 8 20 18 25 23 14
24 14 12 -8z m-65 -32 c-10 -15 -25 -10 -19 6 4 8 10 12 15 9 5 -3 7 -10 4
-15z"/>
<path d="M886 1847 c3 -10 9 -15 12 -12 3 3 0 11 -7 18 -10 9 -11 8 -5 -6z"/>
<path d="M3923 1822 c3 -22 35 -67 42 -60 7 7 -26 78 -37 78 -4 0 -7 -8 -5
-18z"/>
<path d="M3694 1738 c-11 -17 -12 -48 -3 -53 4 -3 9 11 11 30 4 38 3 41 -8 23z"/>
<path d="M3600 1719 c-14 -10 -19 -19 -12 -19 6 0 12 -7 12 -15 0 -14 12 -20
34 -16 16 3 37 -22 31 -37 -7 -18 3 -52 16 -52 13 0 11 54 -3 68 -7 7 -13 18
-14 25 0 7 -2 20 -2 29 -3 30 -35 39 -62 17z"/>
<path d="M770 1665 c13 -14 26 -25 28 -25 3 0 -5 11 -18 25 -13 14 -26 25 -28
25 -3 0 5 -11 18 -25z"/>
<path d="M3324 1659 c-3 -5 -15 -7 -26 -3 -13 4 -18 2 -14 -4 3 -5 -10 -13
-30 -16 -31 -6 -54 -29 -42 -42 3 -2 34 2 70 9 70 15 172 67 131 67 -13 0 -23
-4 -23 -9 0 -6 -12 -6 -30 -1 -18 5 -32 5 -36 -1z"/>
<path d="M2340 1650 c0 -5 9 -10 20 -10 11 0 20 5 20 10 0 6 -9 10 -20 10 -11
0 -20 -4 -20 -10z"/>
<path d="M2370 1580 c0 -5 5 -10 11 -10 5 0 7 5 4 10 -3 6 -8 10 -11 10 -2 0
-4 -4 -4 -10z"/>
<path d="M3700 1581 c0 -5 9 -11 21 -14 16 -4 18 -3 8 9 -13 16 -29 19 -29 5z"/>
<path d="M3795 1580 c4 -6 11 -8 16 -5 14 9 11 15 -7 15 -8 0 -12 -5 -9 -10z"/>
<path d="M3681 1554 c0 -11 3 -14 6 -6 3 7 2 16 -1 19 -3 4 -6 -2 -5 -13z"/>
<path d="M2904 1501 c4 -6 1 -11 -8 -11 -9 0 -16 -5 -16 -10 0 -7 6 -7 19 -1
10 6 22 7 26 3 4 -4 6 -1 3 7 -2 8 -10 17 -18 19 -7 3 -10 0 -6 -7z"/>
<path d="M3904 1465 c3 -8 1 -17 -4 -20 -18 -11 -10 -23 25 -39 34 -16 49 -31
22 -20 -15 5 -17 -22 -3 -44 4 -6 5 -16 2 -21 -4 -5 -1 -11 6 -13 14 -5 20
-38 7 -38 -21 0 -7 -18 19 -23 15 -3 36 -9 47 -13 18 -7 19 -6 6 10 -13 15
-13 19 0 27 8 5 17 9 22 9 4 0 7 5 7 11 0 7 -10 4 -26 -6 -24 -15 -28 -16 -42
-1 -13 12 -13 20 -4 41 11 23 17 25 72 25 63 0 71 6 42 34 -29 26 -205 98
-198 81z"/>
<path d="M915 1420 c-16 -3 -29 -9 -27 -13 5 -16 1 -28 -8 -22 -6 4 -8 11 -4
16 3 6 -10 3 -29 -5 -20 -8 -39 -11 -43 -8 -8 8 3 -84 11 -98 8 -14 47 4 102
46 67 51 77 67 49 79 -11 6 -34 8 -51 5z"/>
<path d="M896 1295 c4 -8 10 -12 15 -9 11 6 2 24 -11 24 -5 0 -7 -7 -4 -15z"/>
<path d="M1160 1286 c0 -2 8 -10 18 -17 15 -13 16 -12 3 4 -13 16 -21 21 -21
13z"/>
<path d="M1195 1247 c-4 -10 -5 -21 -1 -24 10 -10 18 4 13 24 -4 17 -4 17 -12
0z"/>
<path d="M3840 1250 c19 -12 10 -13 -75 -11 -55 1 -61 -1 -71 -23 -10 -21 -7
-33 13 -75 13 -28 28 -51 34 -51 5 0 26 11 47 24 20 12 48 27 62 31 30 9 40
22 40 52 0 23 -35 63 -54 63 -6 0 -4 -5 4 -10z"/>
<path d="M2821 1221 c-6 -11 -7 -22 -2 -25 5 -3 11 4 14 16 8 30 1 35 -12 9z"/>
<path d="M2855 1200 c3 -5 8 -10 11 -10 2 0 4 5 4 10 0 6 -5 10 -11 10 -5 0
-7 -4 -4 -10z"/>
<path d="M1338 1024 c-4 -29 -1 -43 13 -57 18 -17 19 -17 19 15 -1 18 -7 44
-14 57 -13 24 -13 24 -18 -15z"/>
<path d="M2930 1024 c0 -15 43 -64 56 -64 10 0 12 5 7 13 -4 6 -6 22 -4 35 2
19 -2 22 -28 22 -17 0 -31 -3 -31 -6z"/>
<path d="M3380 985 c0 -8 4 -15 10 -15 5 0 7 7 4 15 -4 8 -8 15 -10 15 -2 0
-4 -7 -4 -15z"/>
<path d="M2847 974 c-16 -16 -5 -24 31 -23 20 0 46 4 57 9 17 7 16 9 -10 9
-16 1 -39 4 -50 7 -11 3 -24 2 -28 -2z"/>
<path d="M2431 944 c0 -11 3 -14 6 -6 3 7 2 16 -1 19 -3 4 -6 -2 -5 -13z"/>
<path d="M2400 890 c-7 -16 -9 -37 -6 -46 6 -16 8 -15 21 2 16 21 20 74 6 74
-5 0 -14 -13 -21 -30z"/>
<path d="M2246 847 c-21 -16 -16 -44 9 -53 23 -9 27 0 18 35 -7 29 -10 31 -27
18z"/>
<path d="M2526 765 c4 -8 8 -15 10 -15 2 0 4 7 4 15 0 8 -4 15 -10 15 -5 0 -7
-7 -4 -15z"/>
<path d="M2020 721 c0 -11 12 -24 30 -31 17 -7 30 -19 30 -27 0 -12 3 -13 14
-3 21 17 11 34 -34 58 -38 20 -40 20 -40 3z"/>
<path d="M2311 669 c-14 -15 -26 -19 -43 -14 -19 6 -21 5 -10 -6 7 -8 26 -14
43 -15 16 -1 40 -10 52 -20 20 -18 21 -18 8 -1 -13 17 -12 18 12 12 34 -9 34
-6 -1 33 -34 38 -36 38 -61 11z"/>
</g>
</svg>
