<?xml version="1.0" standalone="no"?>
<!DOCTYPE svg PUBLIC "-//W3C//DTD SVG 20010904//EN"
 "http://www.w3.org/TR/2001/REC-SVG-20010904/DTD/svg10.dtd">
<svg version="1.0" xmlns="http://www.w3.org/2000/svg"
 width="735.000000pt" height="516.000000pt" viewBox="0 0 735.000000 516.000000"
 preserveAspectRatio="xMidYMid meet">

<g transform="translate(0.000000,516.000000) scale(0.100000,-0.100000)"
fill="#000000" stroke="none">
<path d="M3378 4088 l-3 -223 -45 -3 c-102 -6 -334 -34 -468 -57 -777 -135
-1394 -465 -1798 -965 -239 -296 -403 -670 -447 -1020 l-13 -105 -59 -6 c-33
-4 -88 -7 -122 -8 l-63 -1 0 -44 0 -44 108 -6 c215 -13 398 -26 450 -31 l52
-5 0 81 0 82 -101 -6 -100 -5 6 56 c47 399 256 813 570 1128 529 531 1335 805
2370 805 420 0 719 -34 1065 -121 790 -198 1411 -664 1715 -1285 75 -153 127
-299 155 -435 31 -153 34 -146 -55 -140 -88 6 -90 4 -82 -96 l4 -59 49 3 c27
1 161 11 299 22 137 11 253 20 257 20 5 0 8 16 8 35 0 23 -5 35 -14 35 -30 0
-270 21 -273 24 -2 2 -10 48 -18 102 -94 633 -576 1272 -1230 1630 -404 221
-922 372 -1410 409 -44 3 -90 8 -102 11 l-23 4 0 220 0 220 -340 0 -340 0 -2
-222z m522 -75 l0 -138 -180 0 -180 0 0 138 0 137 180 0 180 0 0 -137z"/>
<path d="M3880 3555 c0 -17 -1 -17 195 -44 603 -84 1208 -324 1585 -628 90
-73 240 -226 298 -305 24 -32 45 -58 48 -58 5 0 64 41 88 61 24 20 -220 275
-372 387 -407 301 -994 512 -1632 586 -172 20 -210 20 -210 1z"/>
<path d="M4766 2215 c-116 -193 -134 -221 -139 -214 -2 2 -52 85 -112 184 -59
99 -113 186 -120 193 -10 11 -13 3 -19 -40 -3 -29 -21 -169 -39 -310 l-34
-258 54 0 c40 0 53 4 53 15 0 38 32 302 39 319 6 15 23 -8 86 -115 43 -74 83
-140 88 -147 7 -9 32 25 95 130 46 79 88 147 91 151 4 4 15 -66 25 -155 9 -90
19 -171 22 -180 4 -14 16 -18 55 -18 27 0 49 3 49 8 0 16 -80 616 -83 617 -1
1 -51 -80 -111 -180z"/>
<path d="M1384 2367 c-165 -55 -250 -239 -190 -415 63 -186 332 -256 484 -126
51 43 91 124 99 198 l6 56 -147 0 -146 0 0 -40 0 -40 90 0 c101 0 107 -5 69
-66 -58 -94 -206 -110 -296 -31 -97 85 -98 248 -1 333 79 70 207 67 279 -5
l37 -36 36 24 c20 13 36 29 36 36 0 18 -62 70 -113 97 -52 27 -181 35 -243 15z"/>
<path d="M2230 2365 c-77 -26 -134 -76 -171 -151 -29 -59 -34 -78 -34 -144 0
-66 5 -85 33 -143 57 -116 158 -173 295 -165 173 9 291 134 291 308 0 125 -64
229 -173 281 -59 28 -177 35 -241 14z m230 -124 c116 -93 99 -293 -30 -358
-79 -41 -191 -23 -247 38 -69 75 -69 217 -1 295 68 77 199 89 278 25z"/>
<path d="M2912 2138 c3 -215 5 -236 24 -273 41 -75 97 -105 199 -105 104 0
181 52 205 138 5 20 10 135 10 255 l0 217 -49 0 -50 0 -3 -231 -3 -231 -33
-29 c-40 -35 -100 -39 -149 -9 -47 29 -54 69 -51 300 l3 200 -53 0 -54 0 4
-232z"/>
<path d="M3650 2070 l0 -300 50 0 50 0 0 115 0 115 30 0 c27 0 37 -11 106
-115 l77 -115 58 0 c33 0 59 2 59 5 0 2 -32 48 -71 102 -99 137 -96 129 -50
152 103 53 120 204 32 284 -52 47 -93 57 -228 57 l-113 0 0 -300z m261 181
c31 -32 39 -84 18 -123 -15 -28 -69 -48 -129 -48 l-50 0 0 100 0 100 66 0 c59
0 68 -3 95 -29z"/>
<path d="M5230 2070 l0 -300 180 0 180 0 0 45 0 45 -130 0 -130 0 0 95 0 95
123 0 122 0 0 40 0 40 -122 0 -123 0 0 75 0 75 130 0 130 0 0 45 0 45 -180 0
-180 0 0 -300z"/>
<path d="M5830 2326 l0 -45 78 -3 77 -3 3 -252 2 -253 50 0 50 0 0 255 0 254
77 3 76 3 0 40 0 40 -206 3 -207 2 0 -44z"/>
<path d="M1992 1561 c-11 -7 -10 -9 3 -14 21 -9 3628 -9 3649 -1 9 3 13 10 10
15 -7 11 -3644 11 -3662 0z"/>
<path d="M1620 1236 c0 -119 1 -126 20 -126 17 0 20 7 20 50 l0 50 40 0 c51 0
80 27 80 73 0 49 -28 70 -100 75 l-60 4 0 -126z m108 72 c29 -29 2 -68 -47
-68 -18 0 -21 6 -21 40 0 37 2 40 28 40 15 0 33 -5 40 -12z"/>
<path d="M1890 1236 c0 -119 1 -126 20 -126 17 0 20 7 20 50 0 28 5 50 10 50
6 0 26 -22 46 -50 26 -36 43 -50 60 -50 24 0 24 0 -10 48 l-34 47 24 22 c16
15 24 32 24 56 0 49 -28 70 -100 75 l-60 4 0 -126z m114 62 c16 -26 -4 -52
-43 -56 -30 -3 -31 -2 -31 38 0 40 1 41 31 38 18 -2 37 -11 43 -20z"/>
<path d="M2180 1235 l0 -125 75 0 c68 0 75 2 75 20 0 18 -7 20 -55 20 l-55 0
0 40 0 40 50 0 c38 0 50 4 50 15 0 11 -12 15 -50 15 -49 0 -50 1 -50 30 0 30
1 30 55 30 48 0 55 2 55 20 0 18 -7 20 -75 20 l-75 0 0 -125z"/>
<path d="M2466 1349 c-3 -8 -11 -65 -19 -126 l-13 -113 22 0 c20 0 23 7 29 70
4 38 11 68 16 65 4 -3 20 -28 35 -55 15 -28 30 -50 33 -50 3 0 19 22 34 50 15
27 32 52 36 55 5 3 12 -27 16 -65 6 -60 10 -70 26 -70 14 0 19 7 18 28 0 43
-23 210 -29 216 -3 3 -26 -28 -50 -69 -25 -41 -47 -75 -50 -75 -3 0 -26 35
-52 77 -29 47 -49 71 -52 62z"/>
<path d="M2820 1235 c0 -118 1 -125 20 -125 19 0 20 7 20 125 0 118 -1 125
-20 125 -19 0 -20 -7 -20 -125z"/>
<path d="M2990 1258 c1 -69 5 -109 14 -120 31 -41 108 -44 143 -6 14 16 19 41
21 124 4 100 3 104 -17 104 -19 0 -21 -6 -22 -72 -1 -40 -3 -80 -4 -88 -1 -8
-3 -20 -4 -27 -2 -22 -41 -36 -67 -24 -23 10 -24 15 -24 111 0 93 -1 100 -20
100 -19 0 -20 -7 -20 -102z"/>
<path d="M3290 1236 c0 -119 1 -126 20 -126 18 0 20 7 20 82 l0 83 90 -90 90
-90 0 133 c0 125 -1 132 -20 132 -18 0 -20 -7 -20 -81 l0 -81 -90 82 -90 82 0
-126z"/>
<path d="M3839 1339 c-14 -14 -19 -30 -17 -52 2 -27 11 -36 48 -55 24 -12 50
-28 58 -35 16 -17 6 -44 -19 -52 -21 -7 -69 18 -69 35 0 5 -7 7 -15 4 -43 -17
16 -74 76 -74 47 0 79 28 79 68 0 33 -29 64 -82 86 -42 17 -49 39 -18 56 22
12 60 -2 60 -21 0 -6 8 -5 22 2 l22 12 -28 23 c-35 30 -88 32 -117 3z"/>
<path d="M4100 1235 l0 -125 75 0 c68 0 75 2 75 20 0 18 -7 20 -55 20 l-55 0
0 40 0 40 50 0 c38 0 50 4 50 15 0 11 -12 15 -50 15 -49 0 -50 1 -50 30 0 30
1 30 55 30 48 0 55 2 55 20 0 18 -7 20 -75 20 l-75 0 0 -125z"/>
<path d="M4370 1236 c0 -119 1 -126 20 -126 17 0 20 7 20 50 0 28 5 50 10 50
6 0 26 -22 46 -50 26 -36 43 -50 60 -50 24 0 24 0 -10 48 l-34 47 24 22 c16
15 24 32 24 56 0 49 -28 70 -100 75 l-60 4 0 -126z m114 62 c16 -26 -4 -52
-43 -56 -30 -3 -31 -2 -31 38 0 40 1 41 31 38 18 -2 37 -11 43 -20z"/>
<path d="M4666 1263 c26 -54 53 -113 61 -132 8 -18 15 -32 17 -30 5 7 116 249
116 254 0 3 -10 5 -22 5 -19 0 -28 -14 -57 -85 -19 -47 -37 -82 -41 -78 -4 4
-21 43 -40 86 -27 65 -36 77 -56 77 -23 0 -23 -2 22 -97z"/>
<path d="M4970 1235 c0 -118 1 -125 20 -125 19 0 20 7 20 125 0 118 -1 125
-20 125 -19 0 -20 -7 -20 -125z"/>
<path d="M5184 1341 c-38 -23 -44 -32 -54 -78 -18 -79 36 -153 113 -153 66 0
87 9 87 36 0 24 -14 32 -25 14 -3 -5 -24 -10 -46 -10 -53 0 -89 34 -89 85 0
70 80 110 138 69 21 -14 22 -14 22 10 0 15 -8 30 -19 36 -31 16 -93 12 -127
-9z"/>
<path d="M5460 1235 l0 -125 75 0 c68 0 75 2 75 20 0 18 -7 20 -55 20 l-55 0
0 40 0 40 50 0 c38 0 50 4 50 15 0 11 -12 15 -50 15 -49 0 -50 1 -50 30 0 30
1 30 55 30 48 0 55 2 55 20 0 18 -7 20 -75 20 l-75 0 0 -125z"/>
<path d="M5752 1344 c-43 -30 -24 -93 36 -117 45 -18 65 -39 56 -60 -13 -34
-73 -29 -87 8 -4 8 -13 12 -22 9 -43 -17 16 -74 76 -74 47 0 79 28 79 68 0 33
-29 64 -82 86 -41 16 -49 39 -20 54 19 11 62 -2 62 -18 0 -7 7 -7 22 1 l22 12
-28 23 c-32 28 -81 31 -114 8z"/>
</g>
</svg>
